<svg width="35" height="35" viewBox="0 0 35 35" fill="none" xmlns="http://www.w3.org/2000/svg">
<circle cx="17.5" cy="17.5" r="17" fill="#D9D9D9" stroke="#247C53"/>
<mask id="mask0_122_442" style="mask-type:alpha" maskUnits="userSpaceOnUse" x="0" y="0" width="35" height="35">
<circle cx="17.5" cy="17.5" r="17" fill="#D9D9D9" stroke="black"/>
</mask>
<g mask="url(#mask0_122_442)">
<path d="M18.1677 17.0395C18.4511 17.0115 18.7945 17.0138 19.1619 17.0356C19.8989 17.0794 20.6603 17.1952 21.1365 17.2563C21.1531 17.2584 21.2353 17.2727 21.365 17.4975C21.4941 17.7213 21.6152 18.0636 21.74 18.5317L21.8669 19.0043L22.3425 18.8881C22.997 18.7279 23.7177 18.5815 24.4148 18.5746C25.0986 18.5679 25.7194 18.6973 26.2244 19.0424C26.3155 19.128 26.3539 19.2237 26.3572 19.2934C26.3598 19.3499 26.3434 19.4072 26.2654 19.4653C26.2349 19.4842 26.1847 19.5072 26.0691 19.561C26.0212 19.5832 25.9543 19.6145 25.8933 19.6518C25.8622 19.6708 25.8222 19.6979 25.782 19.7328C25.7443 19.7656 25.6848 19.8238 25.6394 19.9106L25.6277 19.934L25.6179 19.9594C25.4407 20.4097 25.1972 21.1068 25.2371 21.7153L25.239 21.7387C25.8088 26.8263 26.9578 31.9796 27.7527 36.978C27.8035 37.4323 27.8543 37.8846 27.8259 38.311C27.7989 38.7168 27.7005 39.0457 27.5027 39.2963C27.4091 39.3649 27.283 39.4129 27.0886 39.4457C26.9808 39.464 26.8697 39.4756 26.738 39.4907C26.6753 39.4978 26.6074 39.5054 26.5378 39.5151L26.3572 39.5453C24.1334 39.8428 21.8903 39.851 19.6179 39.8051C17.3566 39.7595 15.0515 39.6602 12.7585 39.7534H12.7507C11.1077 39.8458 9.56117 39.9824 8.0564 39.6323L7.73218 39.5561L7.64429 39.6772C7.63253 39.6562 7.61726 39.6303 7.59741 39.602C7.07244 38.0918 7.03744 35.8702 7.26636 33.561C7.49395 31.2653 7.97394 28.9555 8.42358 27.3207L8.42651 27.312L8.42847 27.3022C8.61903 26.4857 8.9405 25.7083 9.25269 24.85C9.55756 24.0118 9.84487 23.1152 9.89917 22.1528V22.1313C9.90248 21.868 9.85866 21.6057 9.81519 21.3803C9.76855 21.1385 9.7249 20.9451 9.70093 20.7485C9.65562 20.3766 9.70345 20.1653 9.90112 19.9907L10.113 19.8032L10.0623 19.5258C10.0412 19.4105 10.0785 19.2858 10.1941 19.1674C10.3146 19.0441 10.4917 18.9622 10.6589 18.9506L11.0115 18.9262L11.1062 18.5854C11.2472 18.077 11.4925 17.8762 11.7712 17.7856C12.098 17.6794 12.5492 17.7004 13.1189 17.8237C13.6825 17.9457 14.273 18.1446 14.8748 18.3305C15.447 18.5073 16.0568 18.6817 16.571 18.6909L16.8601 18.6957L17.0085 18.4487C17.1484 18.2163 17.289 17.8484 17.3914 17.6166C17.4504 17.4829 17.5051 17.372 17.5574 17.2866C17.6095 17.2013 17.6404 17.1739 17.6433 17.1713C17.706 17.1277 17.8669 17.0693 18.1677 17.0395Z" fill="white" stroke="black"/>
<mask id="path-4-inside-1_122_442" fill="white">
<path fill-rule="evenodd" clip-rule="evenodd" d="M27.178 39.2575C26.9658 37.5564 26.8183 35.5027 26.8166 33.7874C26.8164 33.6258 27.0674 33.6261 27.0676 33.7874C27.0693 35.5027 27.2169 37.5564 27.4291 39.2575C27.449 39.4175 27.1977 39.4155 27.178 39.2575ZM25.606 28.7096C25.2781 28.9099 24.8475 28.771 24.523 28.6384C24.3752 28.578 24.4403 28.3356 24.5897 28.3967C24.8367 28.4976 25.1977 28.6462 25.4583 28.5054C25.7185 28.3649 25.7302 27.9785 25.7321 27.7234C25.7334 27.562 25.9844 27.5621 25.9832 27.7234C25.9805 28.0704 25.9341 28.5092 25.606 28.7096ZM24.9991 36.4944C24.6682 36.3251 24.386 36.0936 24.1588 35.7998C24.06 35.672 24.2782 35.5474 24.3756 35.6733C24.5755 35.9319 24.836 36.1297 25.1258 36.278C25.2697 36.3517 25.1426 36.5679 24.9991 36.4944ZM23.409 27.7463C22.8413 30.0176 22.4604 32.3296 22.2737 34.6633C22.2357 35.137 22.2091 35.6102 22.194 36.0836C22.1789 36.207 22.1645 36.3308 22.151 36.4546C22.0999 36.9226 22.0606 37.3983 22.0641 37.8695C22.0657 38.081 22.0723 38.2916 22.0867 38.5024C22.0616 38.4319 22.0384 38.3611 22.0158 38.2906C21.9696 38.1462 21.9392 37.9964 21.8921 37.8529C21.8532 37.7342 21.803 37.6204 21.7563 37.5055V37.5051C21.7704 37.0342 21.7384 36.5589 21.7221 36.0902C21.7011 35.4829 21.675 34.8763 21.6615 34.2688C21.6345 33.0537 21.648 31.8377 21.692 30.6233C21.7801 28.1762 22.0029 25.7408 22.2276 23.3037C22.29 22.626 22.3572 21.9485 22.4036 21.2695C22.4504 20.5834 22.4692 19.896 22.4745 19.2079C22.4748 19.1584 22.3995 19.1453 22.3857 19.1932C22.3735 19.0299 22.3518 18.867 22.3157 18.7094C22.857 19.0541 23.4278 19.352 23.9873 19.6653C24.2819 19.8305 24.5753 19.9984 24.879 20.1463C25.0459 20.2277 25.2144 20.3027 25.3864 20.3735C25.5646 20.4468 25.735 20.5477 25.9311 20.4966C25.9481 20.4922 25.9641 20.4859 25.9794 20.4778C25.9572 20.5201 25.9349 20.5621 25.9135 20.6047C25.8395 20.7516 25.7689 20.8992 25.7005 21.0481C25.6823 21.0615 25.6663 21.08 25.6537 21.1041C25.6205 21.169 25.5882 21.2345 25.5568 21.3009C25.5505 21.295 25.5442 21.289 25.538 21.283C25.5116 21.2583 25.4752 21.2955 25.4984 21.3225C25.5091 21.3347 25.5194 21.3467 25.5298 21.3589C25.3252 21.7985 25.1589 22.2606 24.9876 22.7118C24.777 23.2664 24.5775 23.8251 24.3895 24.3875C24.0189 25.4938 23.692 26.6146 23.409 27.7463ZM15.2937 35.9891C14.2475 36.5486 13.2699 37.2171 12.3296 37.9382C12.2014 38.0365 12.0766 37.8187 12.2029 37.7218C13.1432 37.0007 14.1208 36.3321 15.167 35.7726C15.3095 35.6965 15.4362 35.9129 15.2937 35.9891ZM11.7602 29.4369C11.7058 29.4329 11.653 29.4014 11.6392 29.3449C11.5544 28.9985 11.4881 28.621 11.5669 28.2676C11.602 28.11 11.844 28.1771 11.8089 28.3342C11.7468 28.6129 11.7962 28.9141 11.8607 29.192C12.7731 29.2319 13.6734 28.905 14.5463 28.6854C14.7033 28.6459 14.7696 28.8878 14.6131 28.9271C13.687 29.16 12.7292 29.5086 11.7602 29.4369ZM29.9249 38.6789C29.9258 38.6767 29.9268 38.6742 29.9274 38.672C29.9811 38.5097 29.9823 38.321 29.9883 38.1509C29.9986 37.8482 29.9877 37.5449 29.9604 37.2432C29.9026 36.6081 29.7784 35.9833 29.6299 35.3638C29.3359 34.1369 28.9205 32.9431 28.6949 31.6995C28.2521 29.2584 28.3573 26.7167 27.4884 24.3621C27.1272 23.3833 26.6114 22.4423 25.9104 21.6647C25.9616 21.5093 26.0114 21.3535 26.0601 21.1972C26.1451 20.9252 26.232 20.6445 26.2844 20.3644C26.2857 20.3569 26.2873 20.349 26.2882 20.3412C26.5866 20.2127 26.858 19.9705 26.9045 19.6484C26.9245 19.5093 26.9013 19.3552 26.8411 19.2207C26.9641 19.1073 27.0431 18.9601 27.0243 18.7627C26.9892 18.3911 26.5546 18.2955 26.2521 18.2228C25.9082 18.1404 25.5514 18.1175 25.1997 18.1564C25.0221 18.1758 24.8464 18.2084 24.6747 18.2573C24.5257 18.2996 24.3635 18.3431 24.2439 18.4453C24.2298 18.4572 24.2414 18.4804 24.2584 18.4804C24.5003 18.4794 24.7413 18.3907 24.9857 18.3791C25.2417 18.3672 25.4972 18.3882 25.7482 18.4409C25.9936 18.4923 26.2383 18.5675 26.4614 18.6837C26.5242 18.7166 26.6161 18.7388 26.5424 18.8053C26.4884 18.8538 26.3823 18.8579 26.313 18.8651C26.1595 18.8811 26.0271 18.9707 26.0077 19.1343C25.9904 19.2787 26.0767 19.4423 26.2305 19.4748C26.2389 19.4768 26.2468 19.4789 26.2537 19.4817C26.2578 19.4896 26.264 19.4962 26.2634 19.4855C26.2634 19.4855 26.2637 19.4852 26.2637 19.4855C26.2675 19.5084 26.2687 19.5174 26.2687 19.519C26.2678 19.5171 26.2662 19.5093 26.265 19.503C26.2659 19.5087 26.2678 19.5178 26.2703 19.5312C26.2669 19.5165 26.2697 19.5526 26.2669 19.5582C26.1853 19.7086 25.944 19.7509 25.8034 19.8157C25.7761 19.8282 25.7526 19.843 25.7325 19.8596C25.6992 19.848 25.6653 19.8364 25.6311 19.8236C25.4626 19.7606 25.2945 19.6995 25.1238 19.6428C24.7943 19.5328 24.4607 19.4347 24.1313 19.3245C23.5075 19.1158 22.9044 18.8523 22.2922 18.6135C22.2728 18.5415 22.2502 18.471 22.2235 18.4023C22.2182 18.388 22.1924 18.3832 22.1896 18.4023C22.1802 18.4631 22.1727 18.5242 22.1664 18.5856C22.1639 18.5913 22.1632 18.5975 22.1645 18.6035C22.129 18.9607 22.1385 19.3263 22.1203 19.6832C22.0977 20.1281 22.0346 20.5699 22.0167 21.0152V21.0233C21.9508 21.4034 21.8912 21.7847 21.8372 22.1673C21.7767 22.1485 21.7073 22.1522 21.6364 22.1901C21.135 22.4574 20.5714 22.6062 20.0044 22.6394C19.7189 22.656 19.4362 22.6467 19.1522 22.6137C18.9655 22.5924 18.7816 22.5536 18.5975 22.5166C18.6944 22.1109 18.7986 21.707 18.9163 21.3072C19.0132 20.9785 19.1212 20.6514 19.2545 20.3352C19.3891 20.016 19.5567 19.7111 19.7126 19.4015C19.7845 19.2583 19.6998 19.0393 19.5131 19.0544C19.4578 19.0588 19.4026 19.0622 19.3471 19.0647C18.8068 19.0904 18.2448 19.0303 17.7113 18.9767C17.1042 18.9152 16.4889 18.8516 15.887 18.7517C15.8425 18.7445 15.8243 18.805 15.8682 18.8197C16.1537 18.9156 16.4358 19.0239 16.7286 19.0957C17.0298 19.17 17.3329 19.2377 17.6386 19.2906C17.9313 19.3411 18.2253 19.3834 18.5203 19.4191C18.7126 19.4426 18.9072 19.4545 19.1008 19.4701C18.84 19.8862 18.6602 20.3556 18.5036 20.8177C18.3025 21.4112 18.1547 22.0219 18.0101 22.6313C17.7007 23.9375 17.4456 25.2569 17.246 26.5845C17.1029 27.5364 16.9871 28.492 16.9002 29.4502C16.8745 29.1591 16.8431 28.869 16.8077 28.5791C16.6891 27.6169 16.5158 26.661 16.2843 25.7194C16.305 25.6831 16.3147 25.6395 16.3078 25.5972C16.2661 25.3384 16.1563 25.1131 16.0599 24.8731C15.9642 24.5379 15.861 24.2048 15.7499 23.8742C15.6238 23.424 15.4823 22.9806 15.3012 22.5476C15.1628 22.2177 15.005 21.8962 14.8293 21.5845C14.6194 21.1486 14.3887 20.7222 14.1355 20.3146C14.1223 20.2766 14.101 20.2412 14.0706 20.2115C14.0244 20.1388 13.9777 20.067 13.93 19.9959C13.8989 19.9495 13.8098 19.9777 13.8333 20.0366C13.8443 20.0642 13.8553 20.0918 13.8666 20.1191C12.8352 19.8615 11.8239 20.2553 10.8415 20.5461C10.5936 20.6197 10.3432 20.6862 10.089 20.7341C9.88914 20.7717 9.65631 20.8174 9.45706 20.7761C9.32371 20.7485 9.26472 20.688 9.32967 20.5458C9.39682 20.3986 9.58007 20.3017 9.73915 20.2366C9.79908 20.2237 9.85807 20.2008 9.91487 20.1664C10.0473 20.0861 10.1053 19.9188 10.0429 19.7763C9.9861 19.6475 9.82042 19.5366 9.67389 19.5955C9.65286 19.6039 9.63215 19.6121 9.61144 19.6202C9.60925 19.6171 9.60674 19.6127 9.60454 19.6064C9.58352 19.5491 9.57442 19.6178 9.58352 19.5356C9.59858 19.4015 9.74072 19.2796 9.83799 19.2029C10.0799 19.0114 10.4295 18.8698 10.7417 18.9422C10.7652 18.9475 10.7887 18.9541 10.812 18.9622C11.1336 19.0735 11.2902 18.611 11.0332 18.4387C11.0175 18.4283 10.9977 18.4152 10.9761 18.3998C10.8691 18.3256 10.7125 18.2006 10.7552 18.0878C10.8079 17.9477 11.1188 17.8672 11.2365 17.8196C11.662 17.6472 12.1217 17.5495 12.5804 17.5294C13.042 17.5094 13.5095 17.5601 13.9548 17.6845C14.1732 17.7453 14.3975 17.8377 14.604 17.9311C14.7894 18.0148 15.193 18.1254 15.2187 18.3597C15.2243 18.4115 15.2981 18.429 15.3141 18.3726C15.4405 17.9226 14.9498 17.6322 14.626 17.4464C14.4135 17.3242 14.1725 17.248 13.9394 17.1732C13.716 17.1011 13.4879 17.0481 13.2551 17.0162C12.7552 16.9479 12.2494 16.9567 11.7536 17.0525C11.3021 17.14 10.7997 17.2891 10.4348 17.5792C10.2108 17.7572 10.1094 18.0404 10.1995 18.3168C10.2026 18.3259 10.2057 18.3353 10.2089 18.3444C9.80567 18.4164 9.42412 18.647 9.16901 18.9685C8.95941 19.2326 8.84959 19.6002 9.03723 19.9076C9.02938 19.9132 9.02154 19.9191 9.01401 19.9254C8.83515 20.0683 8.70211 20.2757 8.66257 20.5026C8.58507 20.95 8.85586 21.263 9.23459 21.3827C9.14077 21.4742 9.05072 21.5713 8.96255 21.6684C8.76518 21.8862 8.5766 22.1234 8.4103 22.3653C8.0733 22.8553 7.78525 23.3889 7.53328 23.9266C7.01523 25.0307 6.68859 26.2192 6.51538 27.4242C6.42815 28.0314 6.36979 28.6418 6.34751 29.2547C6.32178 29.9534 6.34782 30.6524 6.33433 31.3514C6.32115 32.0232 6.24679 32.6787 6.09649 33.3336C5.95246 33.9599 5.76043 34.5737 5.58659 35.1919C5.39048 35.8881 5.1746 36.5811 5.07106 37.299C5.01865 37.6643 4.981 38.0306 5.01018 38.4C5.03968 38.7763 5.17648 39.0981 5.30262 39.4481C5.33463 39.5374 5.43222 39.5734 5.51035 39.5543C5.52792 39.7219 5.5913 39.8855 5.68575 40.0271C5.88625 40.3273 6.19501 40.5187 6.54864 40.5883C6.94714 40.6663 7.35788 40.6478 7.7614 40.6334C8.19912 40.6177 8.63716 40.6036 9.07488 40.5854C9.53316 40.5665 9.9914 40.5471 10.4497 40.5276C10.4345 40.0586 10.4164 39.5897 10.396 39.1209C10.2855 36.5866 10.1115 34.0508 10.1069 31.5132C10.0981 31.508 10.0893 31.5018 10.081 31.4937C9.87467 31.2946 9.62139 31.1638 9.38342 31.008C9.24875 30.9198 9.37463 30.7029 9.51012 30.7916C9.71076 30.923 9.91983 31.0397 10.1078 31.1869C10.1089 30.9228 10.1113 30.6586 10.1165 30.3944C10.1197 30.2331 10.3707 30.2331 10.3675 30.3944C10.3518 31.1906 10.357 31.987 10.3751 32.7831C10.4335 35.363 10.617 37.938 10.7006 40.5169C11.9307 40.4644 13.1607 40.4115 14.3909 40.3667C15.3916 40.3304 16.3922 40.294 17.3929 40.2577C17.6028 40.2502 17.7208 40.1004 17.7465 39.9046C17.7936 39.5442 17.7051 39.1717 17.5049 38.8687C17.4842 38.8374 17.4597 38.8095 17.4324 38.7857C17.4371 38.5698 17.4459 38.3536 17.4337 38.1377C17.4155 37.8081 17.3882 37.4785 17.3643 37.1492C17.316 36.4897 17.2786 35.8289 17.2639 35.1677C17.2338 33.8455 17.2557 32.522 17.3307 31.2017C17.481 28.5638 17.8309 25.9428 18.4035 23.3626C18.4453 23.1746 18.4873 22.9866 18.5309 22.7989C18.9762 23.0298 19.5178 23.1128 20.0044 23.116C20.6144 23.1198 21.2109 22.9797 21.7619 22.725C21.7582 22.7535 21.7544 22.7817 21.7509 22.8102C21.5972 24.0322 21.4676 25.2566 21.3546 26.4827C21.1293 28.9269 20.9913 31.3812 21.0104 33.8364C21.0158 34.5166 21.0418 35.1947 21.0741 35.874C21.1071 36.5649 21.1576 37.2949 21.3502 37.9613C21.3716 38.0349 21.419 38.0773 21.4736 38.0926C21.4764 38.1898 21.4827 38.2872 21.4896 38.3831C21.5118 38.6948 21.5755 39.3425 21.7117 39.6251C21.8445 39.9008 22.0657 40.1195 22.3478 40.2399C22.7061 40.3924 23.0936 40.3486 23.472 40.3241C25.1175 40.217 26.7617 40.0735 28.4062 39.9475C28.6353 39.93 28.8643 39.9127 29.0931 39.8949C29.2967 39.8792 29.5073 39.8654 29.688 39.7598C29.8935 39.6398 30.0539 39.0505 29.9829 38.8067C29.9701 38.7622 29.9506 38.7183 29.9249 38.6789Z"/>
</mask>
<path fill-rule="evenodd" clip-rule="evenodd" d="M27.178 39.2575C26.9658 37.5564 26.8183 35.5027 26.8166 33.7874C26.8164 33.6258 27.0674 33.6261 27.0676 33.7874C27.0693 35.5027 27.2169 37.5564 27.4291 39.2575C27.449 39.4175 27.1977 39.4155 27.178 39.2575ZM25.606 28.7096C25.2781 28.9099 24.8475 28.771 24.523 28.6384C24.3752 28.578 24.4403 28.3356 24.5897 28.3967C24.8367 28.4976 25.1977 28.6462 25.4583 28.5054C25.7185 28.3649 25.7302 27.9785 25.7321 27.7234C25.7334 27.562 25.9844 27.5621 25.9832 27.7234C25.9805 28.0704 25.9341 28.5092 25.606 28.7096ZM24.9991 36.4944C24.6682 36.3251 24.386 36.0936 24.1588 35.7998C24.06 35.672 24.2782 35.5474 24.3756 35.6733C24.5755 35.9319 24.836 36.1297 25.1258 36.278C25.2697 36.3517 25.1426 36.5679 24.9991 36.4944ZM23.409 27.7463C22.8413 30.0176 22.4604 32.3296 22.2737 34.6633C22.2357 35.137 22.2091 35.6102 22.194 36.0836C22.1789 36.207 22.1645 36.3308 22.151 36.4546C22.0999 36.9226 22.0606 37.3983 22.0641 37.8695C22.0657 38.081 22.0723 38.2916 22.0867 38.5024C22.0616 38.4319 22.0384 38.3611 22.0158 38.2906C21.9696 38.1462 21.9392 37.9964 21.8921 37.8529C21.8532 37.7342 21.803 37.6204 21.7563 37.5055V37.5051C21.7704 37.0342 21.7384 36.5589 21.7221 36.0902C21.7011 35.4829 21.675 34.8763 21.6615 34.2688C21.6345 33.0537 21.648 31.8377 21.692 30.6233C21.7801 28.1762 22.0029 25.7408 22.2276 23.3037C22.29 22.626 22.3572 21.9485 22.4036 21.2695C22.4504 20.5834 22.4692 19.896 22.4745 19.2079C22.4748 19.1584 22.3995 19.1453 22.3857 19.1932C22.3735 19.0299 22.3518 18.867 22.3157 18.7094C22.857 19.0541 23.4278 19.352 23.9873 19.6653C24.2819 19.8305 24.5753 19.9984 24.879 20.1463C25.0459 20.2277 25.2144 20.3027 25.3864 20.3735C25.5646 20.4468 25.735 20.5477 25.9311 20.4966C25.9481 20.4922 25.9641 20.4859 25.9794 20.4778C25.9572 20.5201 25.9349 20.5621 25.9135 20.6047C25.8395 20.7516 25.7689 20.8992 25.7005 21.0481C25.6823 21.0615 25.6663 21.08 25.6537 21.1041C25.6205 21.169 25.5882 21.2345 25.5568 21.3009C25.5505 21.295 25.5442 21.289 25.538 21.283C25.5116 21.2583 25.4752 21.2955 25.4984 21.3225C25.5091 21.3347 25.5194 21.3467 25.5298 21.3589C25.3252 21.7985 25.1589 22.2606 24.9876 22.7118C24.777 23.2664 24.5775 23.8251 24.3895 24.3875C24.0189 25.4938 23.692 26.6146 23.409 27.7463ZM15.2937 35.9891C14.2475 36.5486 13.2699 37.2171 12.3296 37.9382C12.2014 38.0365 12.0766 37.8187 12.2029 37.7218C13.1432 37.0007 14.1208 36.3321 15.167 35.7726C15.3095 35.6965 15.4362 35.9129 15.2937 35.9891ZM11.7602 29.4369C11.7058 29.4329 11.653 29.4014 11.6392 29.3449C11.5544 28.9985 11.4881 28.621 11.5669 28.2676C11.602 28.11 11.844 28.1771 11.8089 28.3342C11.7468 28.6129 11.7962 28.9141 11.8607 29.192C12.7731 29.2319 13.6734 28.905 14.5463 28.6854C14.7033 28.6459 14.7696 28.8878 14.6131 28.9271C13.687 29.16 12.7292 29.5086 11.7602 29.4369ZM29.9249 38.6789C29.9258 38.6767 29.9268 38.6742 29.9274 38.672C29.9811 38.5097 29.9823 38.321 29.9883 38.1509C29.9986 37.8482 29.9877 37.5449 29.9604 37.2432C29.9026 36.6081 29.7784 35.9833 29.6299 35.3638C29.3359 34.1369 28.9205 32.9431 28.6949 31.6995C28.2521 29.2584 28.3573 26.7167 27.4884 24.3621C27.1272 23.3833 26.6114 22.4423 25.9104 21.6647C25.9616 21.5093 26.0114 21.3535 26.0601 21.1972C26.1451 20.9252 26.232 20.6445 26.2844 20.3644C26.2857 20.3569 26.2873 20.349 26.2882 20.3412C26.5866 20.2127 26.858 19.9705 26.9045 19.6484C26.9245 19.5093 26.9013 19.3552 26.8411 19.2207C26.9641 19.1073 27.0431 18.9601 27.0243 18.7627C26.9892 18.3911 26.5546 18.2955 26.2521 18.2228C25.9082 18.1404 25.5514 18.1175 25.1997 18.1564C25.0221 18.1758 24.8464 18.2084 24.6747 18.2573C24.5257 18.2996 24.3635 18.3431 24.2439 18.4453C24.2298 18.4572 24.2414 18.4804 24.2584 18.4804C24.5003 18.4794 24.7413 18.3907 24.9857 18.3791C25.2417 18.3672 25.4972 18.3882 25.7482 18.4409C25.9936 18.4923 26.2383 18.5675 26.4614 18.6837C26.5242 18.7166 26.6161 18.7388 26.5424 18.8053C26.4884 18.8538 26.3823 18.8579 26.313 18.8651C26.1595 18.8811 26.0271 18.9707 26.0077 19.1343C25.9904 19.2787 26.0767 19.4423 26.2305 19.4748C26.2389 19.4768 26.2468 19.4789 26.2537 19.4817C26.2578 19.4896 26.264 19.4962 26.2634 19.4855C26.2634 19.4855 26.2637 19.4852 26.2637 19.4855C26.2675 19.5084 26.2687 19.5174 26.2687 19.519C26.2678 19.5171 26.2662 19.5093 26.265 19.503C26.2659 19.5087 26.2678 19.5178 26.2703 19.5312C26.2669 19.5165 26.2697 19.5526 26.2669 19.5582C26.1853 19.7086 25.944 19.7509 25.8034 19.8157C25.7761 19.8282 25.7526 19.843 25.7325 19.8596C25.6992 19.848 25.6653 19.8364 25.6311 19.8236C25.4626 19.7606 25.2945 19.6995 25.1238 19.6428C24.7943 19.5328 24.4607 19.4347 24.1313 19.3245C23.5075 19.1158 22.9044 18.8523 22.2922 18.6135C22.2728 18.5415 22.2502 18.471 22.2235 18.4023C22.2182 18.388 22.1924 18.3832 22.1896 18.4023C22.1802 18.4631 22.1727 18.5242 22.1664 18.5856C22.1639 18.5913 22.1632 18.5975 22.1645 18.6035C22.129 18.9607 22.1385 19.3263 22.1203 19.6832C22.0977 20.1281 22.0346 20.5699 22.0167 21.0152V21.0233C21.9508 21.4034 21.8912 21.7847 21.8372 22.1673C21.7767 22.1485 21.7073 22.1522 21.6364 22.1901C21.135 22.4574 20.5714 22.6062 20.0044 22.6394C19.7189 22.656 19.4362 22.6467 19.1522 22.6137C18.9655 22.5924 18.7816 22.5536 18.5975 22.5166C18.6944 22.1109 18.7986 21.707 18.9163 21.3072C19.0132 20.9785 19.1212 20.6514 19.2545 20.3352C19.3891 20.016 19.5567 19.7111 19.7126 19.4015C19.7845 19.2583 19.6998 19.0393 19.5131 19.0544C19.4578 19.0588 19.4026 19.0622 19.3471 19.0647C18.8068 19.0904 18.2448 19.0303 17.7113 18.9767C17.1042 18.9152 16.4889 18.8516 15.887 18.7517C15.8425 18.7445 15.8243 18.805 15.8682 18.8197C16.1537 18.9156 16.4358 19.0239 16.7286 19.0957C17.0298 19.17 17.3329 19.2377 17.6386 19.2906C17.9313 19.3411 18.2253 19.3834 18.5203 19.4191C18.7126 19.4426 18.9072 19.4545 19.1008 19.4701C18.84 19.8862 18.6602 20.3556 18.5036 20.8177C18.3025 21.4112 18.1547 22.0219 18.0101 22.6313C17.7007 23.9375 17.4456 25.2569 17.246 26.5845C17.1029 27.5364 16.9871 28.492 16.9002 29.4502C16.8745 29.1591 16.8431 28.869 16.8077 28.5791C16.6891 27.6169 16.5158 26.661 16.2843 25.7194C16.305 25.6831 16.3147 25.6395 16.3078 25.5972C16.2661 25.3384 16.1563 25.1131 16.0599 24.8731C15.9642 24.5379 15.861 24.2048 15.7499 23.8742C15.6238 23.424 15.4823 22.9806 15.3012 22.5476C15.1628 22.2177 15.005 21.8962 14.8293 21.5845C14.6194 21.1486 14.3887 20.7222 14.1355 20.3146C14.1223 20.2766 14.101 20.2412 14.0706 20.2115C14.0244 20.1388 13.9777 20.067 13.93 19.9959C13.8989 19.9495 13.8098 19.9777 13.8333 20.0366C13.8443 20.0642 13.8553 20.0918 13.8666 20.1191C12.8352 19.8615 11.8239 20.2553 10.8415 20.5461C10.5936 20.6197 10.3432 20.6862 10.089 20.7341C9.88914 20.7717 9.65631 20.8174 9.45706 20.7761C9.32371 20.7485 9.26472 20.688 9.32967 20.5458C9.39682 20.3986 9.58007 20.3017 9.73915 20.2366C9.79908 20.2237 9.85807 20.2008 9.91487 20.1664C10.0473 20.0861 10.1053 19.9188 10.0429 19.7763C9.9861 19.6475 9.82042 19.5366 9.67389 19.5955C9.65286 19.6039 9.63215 19.6121 9.61144 19.6202C9.60925 19.6171 9.60674 19.6127 9.60454 19.6064C9.58352 19.5491 9.57442 19.6178 9.58352 19.5356C9.59858 19.4015 9.74072 19.2796 9.83799 19.2029C10.0799 19.0114 10.4295 18.8698 10.7417 18.9422C10.7652 18.9475 10.7887 18.9541 10.812 18.9622C11.1336 19.0735 11.2902 18.611 11.0332 18.4387C11.0175 18.4283 10.9977 18.4152 10.9761 18.3998C10.8691 18.3256 10.7125 18.2006 10.7552 18.0878C10.8079 17.9477 11.1188 17.8672 11.2365 17.8196C11.662 17.6472 12.1217 17.5495 12.5804 17.5294C13.042 17.5094 13.5095 17.5601 13.9548 17.6845C14.1732 17.7453 14.3975 17.8377 14.604 17.9311C14.7894 18.0148 15.193 18.1254 15.2187 18.3597C15.2243 18.4115 15.2981 18.429 15.3141 18.3726C15.4405 17.9226 14.9498 17.6322 14.626 17.4464C14.4135 17.3242 14.1725 17.248 13.9394 17.1732C13.716 17.1011 13.4879 17.0481 13.2551 17.0162C12.7552 16.9479 12.2494 16.9567 11.7536 17.0525C11.3021 17.14 10.7997 17.2891 10.4348 17.5792C10.2108 17.7572 10.1094 18.0404 10.1995 18.3168C10.2026 18.3259 10.2057 18.3353 10.2089 18.3444C9.80567 18.4164 9.42412 18.647 9.16901 18.9685C8.95941 19.2326 8.84959 19.6002 9.03723 19.9076C9.02938 19.9132 9.02154 19.9191 9.01401 19.9254C8.83515 20.0683 8.70211 20.2757 8.66257 20.5026C8.58507 20.95 8.85586 21.263 9.23459 21.3827C9.14077 21.4742 9.05072 21.5713 8.96255 21.6684C8.76518 21.8862 8.5766 22.1234 8.4103 22.3653C8.0733 22.8553 7.78525 23.3889 7.53328 23.9266C7.01523 25.0307 6.68859 26.2192 6.51538 27.4242C6.42815 28.0314 6.36979 28.6418 6.34751 29.2547C6.32178 29.9534 6.34782 30.6524 6.33433 31.3514C6.32115 32.0232 6.24679 32.6787 6.09649 33.3336C5.95246 33.9599 5.76043 34.5737 5.58659 35.1919C5.39048 35.8881 5.1746 36.5811 5.07106 37.299C5.01865 37.6643 4.981 38.0306 5.01018 38.4C5.03968 38.7763 5.17648 39.0981 5.30262 39.4481C5.33463 39.5374 5.43222 39.5734 5.51035 39.5543C5.52792 39.7219 5.5913 39.8855 5.68575 40.0271C5.88625 40.3273 6.19501 40.5187 6.54864 40.5883C6.94714 40.6663 7.35788 40.6478 7.7614 40.6334C8.19912 40.6177 8.63716 40.6036 9.07488 40.5854C9.53316 40.5665 9.9914 40.5471 10.4497 40.5276C10.4345 40.0586 10.4164 39.5897 10.396 39.1209C10.2855 36.5866 10.1115 34.0508 10.1069 31.5132C10.0981 31.508 10.0893 31.5018 10.081 31.4937C9.87467 31.2946 9.62139 31.1638 9.38342 31.008C9.24875 30.9198 9.37463 30.7029 9.51012 30.7916C9.71076 30.923 9.91983 31.0397 10.1078 31.1869C10.1089 30.9228 10.1113 30.6586 10.1165 30.3944C10.1197 30.2331 10.3707 30.2331 10.3675 30.3944C10.3518 31.1906 10.357 31.987 10.3751 32.7831C10.4335 35.363 10.617 37.938 10.7006 40.5169C11.9307 40.4644 13.1607 40.4115 14.3909 40.3667C15.3916 40.3304 16.3922 40.294 17.3929 40.2577C17.6028 40.2502 17.7208 40.1004 17.7465 39.9046C17.7936 39.5442 17.7051 39.1717 17.5049 38.8687C17.4842 38.8374 17.4597 38.8095 17.4324 38.7857C17.4371 38.5698 17.4459 38.3536 17.4337 38.1377C17.4155 37.8081 17.3882 37.4785 17.3643 37.1492C17.316 36.4897 17.2786 35.8289 17.2639 35.1677C17.2338 33.8455 17.2557 32.522 17.3307 31.2017C17.481 28.5638 17.8309 25.9428 18.4035 23.3626C18.4453 23.1746 18.4873 22.9866 18.5309 22.7989C18.9762 23.0298 19.5178 23.1128 20.0044 23.116C20.6144 23.1198 21.2109 22.9797 21.7619 22.725C21.7582 22.7535 21.7544 22.7817 21.7509 22.8102C21.5972 24.0322 21.4676 25.2566 21.3546 26.4827C21.1293 28.9269 20.9913 31.3812 21.0104 33.8364C21.0158 34.5166 21.0418 35.1947 21.0741 35.874C21.1071 36.5649 21.1576 37.2949 21.3502 37.9613C21.3716 38.0349 21.419 38.0773 21.4736 38.0926C21.4764 38.1898 21.4827 38.2872 21.4896 38.3831C21.5118 38.6948 21.5755 39.3425 21.7117 39.6251C21.8445 39.9008 22.0657 40.1195 22.3478 40.2399C22.7061 40.3924 23.0936 40.3486 23.472 40.3241C25.1175 40.217 26.7617 40.0735 28.4062 39.9475C28.6353 39.93 28.8643 39.9127 29.0931 39.8949C29.2967 39.8792 29.5073 39.8654 29.688 39.7598C29.8935 39.6398 30.0539 39.0505 29.9829 38.8067C29.9701 38.7622 29.9506 38.7183 29.9249 38.6789Z" fill="black" stroke="black" stroke-width="2" mask="url(#path-4-inside-1_122_442)"/>
<path d="M15.451 6.81067C16.0535 6.66736 16.6851 6.82842 17.4735 6.96204L19.8397 7.3634C21.2573 7.60369 22.5707 7.84638 23.4637 8.75891C23.8653 9.16927 24.104 9.68359 24.1923 10.2706C24.2911 10.9279 24.3047 11.6115 24.3173 12.3185C24.3293 12.9929 24.3127 13.6592 24.2352 14.3126C24.158 14.9639 24.0165 15.5916 23.8153 16.2218C23.6188 16.8373 23.3644 17.4241 23.0194 17.9357C22.8451 18.1941 22.6563 18.3851 22.4227 18.5128C22.1707 18.6506 21.876 18.748 21.5682 18.8126C20.3023 19.0785 18.9577 18.7309 17.8827 17.9679C17.3719 17.6053 16.9195 17.1679 16.5145 16.674C16.2816 16.3898 15.9968 16.0709 15.5565 15.8722C15.3763 15.7909 15.1946 15.7273 15.0311 15.672C14.8613 15.6145 14.7149 15.5669 14.5712 15.5099C14.0651 15.3091 13.7891 15.0208 13.7841 14.6993C13.7818 14.5505 13.8104 14.3904 13.869 14.2238L13.912 14.1027L13.8915 13.9767C13.888 13.9554 13.8705 13.8378 13.8622 13.7911C13.8299 13.6106 13.8016 13.4286 13.7762 13.2462C13.7505 13.0613 13.7275 12.8764 13.7079 12.6915L13.66 12.1368L13.6327 11.5646C13.6169 10.9915 13.6357 10.4175 13.6893 9.8468C13.7251 9.46634 13.775 9.08657 13.8397 8.71008C13.9017 8.34971 13.9541 8.08729 14.0809 7.87512C14.2125 7.65513 14.4314 7.46452 14.7137 7.22668C14.965 7.01503 15.2 6.87043 15.451 6.81067Z" fill="white" stroke="black"/>
<path d="M15.4734 14.2715V14.3545M15.4734 14.2715L15.449 14.2441M15.4734 14.2715L15.449 14.2441M15.4734 14.2715V14.209M15.4734 14.3545L15.4656 14.3613L15.4607 14.3643L15.3035 14.4629L15.3015 14.4609L15.449 14.2441M15.4734 14.3545V14.3564M15.4734 14.3545L15.5037 14.3291M15.449 14.2441L15.4734 14.209M15.4734 14.209V14.2041L15.4724 14.2021C15.4683 14.1987 15.4631 14.1959 15.4587 14.1924C15.4418 14.1975 15.4238 14.2023 15.406 14.21C15.3536 14.2325 15.3095 14.265 15.2703 14.3008C15.2601 14.3126 15.2504 14.324 15.2419 14.3359L15.2722 14.3828L15.2156 14.3936C15.2438 14.4136 15.2708 14.4349 15.2966 14.457L15.4734 14.209ZM15.5691 14.4121L15.571 14.4287L15.5994 14.4062L15.6423 14.377C15.6374 14.3706 15.6322 14.3641 15.6267 14.3574L15.6091 14.3711M15.5691 14.4121L15.6091 14.3711M15.5691 14.4121L15.5847 14.3965M15.5691 14.4121L15.5681 14.4033L15.5789 14.3945M15.6091 14.3711L15.5789 14.3945M15.6091 14.3711L15.5847 14.3965M15.5144 14.373L15.5261 14.4209C15.5154 14.4101 15.5065 14.3984 15.4978 14.3887M15.5144 14.373L15.4978 14.3887M15.5144 14.373L15.4978 14.3887M15.5144 14.373L15.5125 14.3643L15.4929 14.3828C15.4945 14.3847 15.4961 14.3867 15.4978 14.3887M15.5818 14.3984L15.5847 14.3965M15.5818 14.3984L15.5789 14.3945M15.5818 14.3984L15.5847 14.3965M15.5818 14.3984L15.5789 14.3945M15.5984 14.3252C15.6041 14.3317 15.6095 14.3383 15.615 14.3447L15.5671 14.3945L15.5632 14.3682M15.5984 14.3252L15.5632 14.3682M15.5984 14.3252L15.5632 14.3682M15.5984 14.3252C15.5937 14.3199 15.5886 14.3148 15.5837 14.3096M15.5632 14.3682L15.5583 14.333M15.5076 14.3447L15.5115 14.3604L15.491 14.3809C15.4839 14.3727 15.4774 14.3662 15.4734 14.3604V14.3564M15.5076 14.3447L15.4998 14.3398M15.5076 14.3447L15.5037 14.3291M15.5076 14.3447L15.4998 14.3398M15.4734 14.3564L15.4998 14.3398M15.4734 14.3564L15.4998 14.3398M15.5583 14.333L15.5837 14.3096M15.5583 14.333L15.5837 14.3096M15.5583 14.333L15.5564 14.3203L15.5759 14.3018C15.5784 14.3045 15.5812 14.3068 15.5837 14.3096M15.5037 14.3291L15.5525 14.2891M15.5037 14.3291L15.4734 14.208V14.2021L15.4763 14.2051C15.493 14.2169 15.5208 14.2421 15.5505 14.2725L15.5525 14.2891M15.5525 14.2891L15.5544 14.3047M15.5525 14.2891L15.5603 14.2832C15.5639 14.287 15.5674 14.291 15.571 14.2949M15.5544 14.3047L15.5554 14.3145L15.573 14.2979C15.5722 14.297 15.5718 14.2958 15.571 14.2949M15.5544 14.3047L15.571 14.2949M15.5544 14.3047L15.571 14.2949M14.5906 13.8936V13.9053M14.5906 13.8936C14.5789 13.8941 14.5877 13.892 14.5701 13.9053V13.9102L14.5906 13.9053M14.5906 13.8936V13.9053M14.5906 13.8936C14.596 13.8884 14.6021 13.8844 14.6082 13.8809L14.6062 13.9014L14.5906 13.9053M14.7097 13.8721L14.7009 13.8779M14.7097 13.8721C14.6784 13.8663 14.6474 13.8628 14.6208 13.873L14.6169 13.8984L14.7009 13.8779M14.7097 13.8721L14.7009 13.8779M14.7097 13.8721C14.7132 13.8727 14.7169 13.8723 14.7205 13.873L14.7009 13.8779M17.3337 4.51953C17.73 4.46511 18.2273 4.52576 18.6785 4.70117C19.1336 4.87812 19.4788 5.14586 19.6472 5.4502L19.8308 5.78125L20.199 5.69531C22.4755 5.15941 25.1801 5.1849 26.9099 6.81543C27.3256 7.26847 27.4921 7.73615 27.5076 8.19141C27.5234 8.66002 27.3796 9.15071 27.1169 9.62695C26.5992 10.5656 25.6829 11.3355 24.9744 11.6338C24.837 10.6837 24.6071 9.78348 24.3123 9.02539L24.2019 8.74316L23.9011 8.70996L23.6082 8.68164C20.5826 8.42893 17.3574 9.37886 15.2351 11.6885L15.0701 11.8682L15.1101 12.1084L15.1453 12.3203L14.8357 12.501L13.3601 12.8271L13.8933 13.0537C13.714 13.1892 13.5727 13.3626 13.4695 13.5537C13.2645 13.9334 13.2056 14.3839 13.2605 14.792C13.3151 15.1974 13.4913 15.6237 13.8289 15.915C14.163 16.2034 14.6049 16.3117 15.0945 16.1953C15.1237 16.2278 15.1526 16.2638 15.1833 16.3037C14.5424 16.4765 13.8292 16.3997 13.0281 16.3252L13.0173 16.3242L13.0076 16.3232L12.6257 16.291C11.7759 16.1877 11.2013 15.8992 10.8357 15.5303C10.4212 15.112 10.2185 14.5325 10.24 13.8311C10.2838 12.4046 11.2665 10.5606 13.0691 9.09473C13.7393 8.60301 14.4823 8.20023 15.2566 7.88867C15.6035 7.74881 15.6722 7.3957 15.6111 7.16992C15.5791 7.05206 15.5012 6.91207 15.3513 6.82031C15.1844 6.7183 14.9921 6.71521 14.8328 6.7793C14.5474 6.89414 14.2651 7.01998 13.988 7.15723C13.9931 7.11832 13.9977 7.08038 14.0046 7.04395L14.0085 7.01855C14.0323 6.84557 14.0687 6.69681 14.1082 6.60742L14.1326 6.55176L14.1433 6.49219C14.1472 6.4833 14.1875 6.3755 14.3357 6.18164C14.4794 5.99373 14.6919 5.76762 14.9705 5.54199C15.5277 5.09071 16.3279 4.65782 17.3337 4.51953ZM15.4998 14.4258L15.5222 14.4707L15.4851 14.502L15.4734 14.5098V14.4482L15.4998 14.4258ZM15.4822 14.3936L15.4988 14.4258L15.4734 14.4473V14.4023L15.4822 14.3936ZM15.4812 14.3906L15.4734 14.3984V14.376L15.4812 14.3906Z" fill="black" stroke="black"/>
<mask id="path-7-inside-2_122_442" fill="white">
<path fill-rule="evenodd" clip-rule="evenodd" d="M21.2722 16.8127C21.0613 16.7268 20.873 16.5835 20.7355 16.4004C20.6876 16.3367 20.6752 16.2695 20.6852 16.208C20.6965 16.1389 20.7375 16.0763 20.7933 16.0342C20.8494 15.9921 20.9194 15.9713 20.9872 15.9819C21.0461 15.9911 21.1047 16.0233 21.1511 16.09L21.1608 16.1034C21.2426 16.2139 21.3492 16.3046 21.4706 16.363C21.5877 16.4194 21.7186 16.4456 21.8541 16.4304C22.1121 16.4012 22.29 16.2619 22.4791 16.0727C22.5025 16.0488 22.5259 16.0241 22.5495 15.9991C22.5644 15.9764 22.585 15.9618 22.6079 15.9541C22.6334 15.9457 22.6622 15.9461 22.6886 15.9553C22.714 15.9642 22.7368 15.981 22.752 16.0033C22.7665 16.0246 22.7747 16.0508 22.772 16.081C22.7547 16.2771 22.6521 16.4522 22.5062 16.5896C22.3442 16.7422 22.1295 16.8478 21.9273 16.8849C21.7046 16.9257 21.4777 16.8964 21.2722 16.8127ZM22.0324 13.7873C22.2693 13.9311 22.6304 14.2664 22.3755 14.623C22.0754 14.9374 21.6434 14.5769 21.4306 14.4139C21.2332 14.2876 21.0114 14.6125 21.1945 14.76C22.7328 15.8972 23.3571 13.8249 22.1522 13.6182C22.0196 13.5954 21.9703 13.7428 22.0324 13.7873ZM19.2758 12.4644C19.302 12.1399 19.7969 12.0662 19.8461 12.3873C19.8902 12.6749 19.8383 12.9392 19.7086 13.1981C19.5846 13.4455 19.273 13.3301 19.2494 13.1048C19.2179 12.8029 19.2595 12.6662 19.2758 12.4644ZM23.0432 12.3207C23.1122 12.2305 23.2118 12.1689 23.3312 12.2037C23.7041 12.3125 23.5942 12.8412 23.4632 13.0985C23.392 13.2383 23.162 13.2737 23.058 13.1507C22.8886 12.95 22.8075 12.5493 23.0229 12.3517C23.0287 12.3414 23.0352 12.3311 23.0432 12.3207ZM19.7033 11.0445L19.7622 11.0342C19.9445 11.0028 20.1711 10.9725 20.3 11.1188C20.3684 11.1964 20.3919 11.3406 20.3 11.4149C20.1383 11.5455 19.9596 11.4949 19.7659 11.5059C19.6062 11.5151 19.4528 11.5415 19.299 11.5854C18.9616 11.6816 18.6867 11.8574 18.3986 12.0504C18.3608 12.0757 18.3222 12.0275 18.3402 11.9922C18.5065 11.6668 18.8289 11.3996 19.1518 11.2367C19.3241 11.1497 19.5127 11.0776 19.7033 11.0445ZM22.7032 10.8988L22.7483 10.908C23.239 11.0104 23.8765 11.215 24.1088 11.6963C24.1177 11.7643 24.1083 11.7789 24.1007 11.7884L24.0982 11.7916C24.0919 11.7997 24.0869 11.8109 24.0574 11.8202C24.0492 11.8183 24.0409 11.8162 24.0325 11.814C23.926 11.7861 23.8417 11.7477 23.7602 11.7079L23.6717 11.6644C23.5691 11.6141 23.4656 11.5657 23.3558 11.53C23.1217 11.4537 22.8809 11.4 22.6363 11.3713C22.5833 11.3651 22.5322 11.3472 22.492 11.3166C22.4537 11.2876 22.4245 11.2473 22.4112 11.1938C22.394 11.1246 22.3989 11.0722 22.4361 11.0098C22.4641 10.9629 22.5041 10.9304 22.55 10.9117C22.5969 10.8927 22.6502 10.8882 22.7032 10.8988Z"/>
</mask>
<path fill-rule="evenodd" clip-rule="evenodd" d="M21.2722 16.8127C21.0613 16.7268 20.873 16.5835 20.7355 16.4004C20.6876 16.3367 20.6752 16.2695 20.6852 16.208C20.6965 16.1389 20.7375 16.0763 20.7933 16.0342C20.8494 15.9921 20.9194 15.9713 20.9872 15.9819C21.0461 15.9911 21.1047 16.0233 21.1511 16.09L21.1608 16.1034C21.2426 16.2139 21.3492 16.3046 21.4706 16.363C21.5877 16.4194 21.7186 16.4456 21.8541 16.4304C22.1121 16.4012 22.29 16.2619 22.4791 16.0727C22.5025 16.0488 22.5259 16.0241 22.5495 15.9991C22.5644 15.9764 22.585 15.9618 22.6079 15.9541C22.6334 15.9457 22.6622 15.9461 22.6886 15.9553C22.714 15.9642 22.7368 15.981 22.752 16.0033C22.7665 16.0246 22.7747 16.0508 22.772 16.081C22.7547 16.2771 22.6521 16.4522 22.5062 16.5896C22.3442 16.7422 22.1295 16.8478 21.9273 16.8849C21.7046 16.9257 21.4777 16.8964 21.2722 16.8127ZM22.0324 13.7873C22.2693 13.9311 22.6304 14.2664 22.3755 14.623C22.0754 14.9374 21.6434 14.5769 21.4306 14.4139C21.2332 14.2876 21.0114 14.6125 21.1945 14.76C22.7328 15.8972 23.3571 13.8249 22.1522 13.6182C22.0196 13.5954 21.9703 13.7428 22.0324 13.7873ZM19.2758 12.4644C19.302 12.1399 19.7969 12.0662 19.8461 12.3873C19.8902 12.6749 19.8383 12.9392 19.7086 13.1981C19.5846 13.4455 19.273 13.3301 19.2494 13.1048C19.2179 12.8029 19.2595 12.6662 19.2758 12.4644ZM23.0432 12.3207C23.1122 12.2305 23.2118 12.1689 23.3312 12.2037C23.7041 12.3125 23.5942 12.8412 23.4632 13.0985C23.392 13.2383 23.162 13.2737 23.058 13.1507C22.8886 12.95 22.8075 12.5493 23.0229 12.3517C23.0287 12.3414 23.0352 12.3311 23.0432 12.3207ZM19.7033 11.0445L19.7622 11.0342C19.9445 11.0028 20.1711 10.9725 20.3 11.1188C20.3684 11.1964 20.3919 11.3406 20.3 11.4149C20.1383 11.5455 19.9596 11.4949 19.7659 11.5059C19.6062 11.5151 19.4528 11.5415 19.299 11.5854C18.9616 11.6816 18.6867 11.8574 18.3986 12.0504C18.3608 12.0757 18.3222 12.0275 18.3402 11.9922C18.5065 11.6668 18.8289 11.3996 19.1518 11.2367C19.3241 11.1497 19.5127 11.0776 19.7033 11.0445ZM22.7032 10.8988L22.7483 10.908C23.239 11.0104 23.8765 11.215 24.1088 11.6963C24.1177 11.7643 24.1083 11.7789 24.1007 11.7884L24.0982 11.7916C24.0919 11.7997 24.0869 11.8109 24.0574 11.8202C24.0492 11.8183 24.0409 11.8162 24.0325 11.814C23.926 11.7861 23.8417 11.7477 23.7602 11.7079L23.6717 11.6644C23.5691 11.6141 23.4656 11.5657 23.3558 11.53C23.1217 11.4537 22.8809 11.4 22.6363 11.3713C22.5833 11.3651 22.5322 11.3472 22.492 11.3166C22.4537 11.2876 22.4245 11.2473 22.4112 11.1938C22.394 11.1246 22.3989 11.0722 22.4361 11.0098C22.4641 10.9629 22.5041 10.9304 22.55 10.9117C22.5969 10.8927 22.6502 10.8882 22.7032 10.8988Z" fill="black"/>
<path d="M21.2722 16.8127L21.6494 15.8866L21.2722 16.8127ZM20.7355 16.4004L21.5349 15.7996L21.5349 15.7996L20.7355 16.4004ZM20.6852 16.208L19.6983 16.0469H19.6983L20.6852 16.208ZM20.7933 16.0342L20.1921 15.2352L20.7933 16.0342ZM20.9872 15.9819L21.1417 14.9939L20.9872 15.9819ZM21.1511 16.09L20.3298 16.6606L20.3357 16.6691L20.3418 16.6775L21.1511 16.09ZM21.1608 16.1034L20.3515 16.6909L20.357 16.6984L21.1608 16.1034ZM21.4706 16.363L21.9042 15.4619L21.4706 16.363ZM21.8541 16.4304L21.742 15.4367L21.742 15.4367L21.8541 16.4304ZM22.4791 16.0727L23.1865 16.7794L23.193 16.7729L22.4791 16.0727ZM22.5495 15.9991L23.2777 16.6844L23.3378 16.6206L23.3858 16.5474L22.5495 15.9991ZM22.6079 15.9541L22.9246 16.9027H22.9246L22.6079 15.9541ZM22.6886 15.9553L23.0176 15.011H23.0176L22.6886 15.9553ZM22.752 16.0033L23.5781 15.4399L23.5781 15.4399L22.752 16.0033ZM22.772 16.081L21.7759 15.9931L21.7759 15.9931L22.772 16.081ZM22.5062 16.5896L21.8204 15.8618L22.5062 16.5896ZM21.9273 16.8849L22.1075 17.8685L22.1075 17.8685L21.9273 16.8849ZM22.0324 13.7873L21.4499 14.6001L21.4809 14.6223L21.5135 14.6421L22.0324 13.7873ZM22.3755 14.623L23.0989 15.3134L23.1478 15.2622L23.189 15.2046L22.3755 14.623ZM21.4306 14.4139L22.0386 13.6199L22.0051 13.5943L21.9697 13.5716L21.4306 14.4139ZM21.1945 14.76L20.5672 15.5388L20.5834 15.5518L20.6001 15.5641L21.1945 14.76ZM22.1522 13.6182L21.983 14.6038L21.9832 14.6038L22.1522 13.6182ZM19.2758 12.4644L18.2791 12.384L18.2791 12.384L19.2758 12.4644ZM19.8461 12.3873L20.8346 12.2358L20.8346 12.2358L19.8461 12.3873ZM19.7086 13.1981L20.6026 13.6461L20.6026 13.6461L19.7086 13.1981ZM19.2494 13.1048L20.244 13.0008L19.2494 13.1048ZM23.0432 12.3207L23.837 12.9289L23.8375 12.9282L23.0432 12.3207ZM23.3312 12.2037L23.6113 11.2437L23.6111 11.2437L23.3312 12.2037ZM23.4632 13.0985L24.3543 13.5523L24.3544 13.5521L23.4632 13.0985ZM23.058 13.1507L22.294 13.7959L22.2942 13.796L23.058 13.1507ZM23.0229 12.3517L23.6989 13.0885L23.8138 12.9831L23.8911 12.8478L23.0229 12.3517ZM19.7033 11.0445L19.8743 12.0298L19.8755 12.0296L19.7033 11.0445ZM19.7622 11.0342L19.5921 10.0488L19.5901 10.0492L19.7622 11.0342ZM20.3 11.1188L19.5497 11.78L19.5498 11.78L20.3 11.1188ZM20.3 11.4149L19.6715 10.637L19.6714 10.6371L20.3 11.4149ZM19.7659 11.5059L19.7089 10.5076L19.7087 10.5076L19.7659 11.5059ZM19.299 11.5854L19.5734 12.547L19.5735 12.547L19.299 11.5854ZM18.3986 12.0504L18.9549 12.8814L18.9551 12.8813L18.3986 12.0504ZM18.3402 11.9922L17.4498 11.5369L17.4497 11.5372L18.3402 11.9922ZM19.1518 11.2367L19.6022 12.1295L19.6022 12.1295L19.1518 11.2367ZM22.7032 10.8988L22.9034 9.91904L22.8994 9.91823L22.7032 10.8988ZM22.7483 10.908L22.9526 9.9291L22.9485 9.92826L22.7483 10.908ZM24.1088 11.6963L25.1005 11.5672L25.0796 11.407L25.0093 11.2615L24.1088 11.6963ZM24.1007 11.7884L24.882 12.4126L24.8822 12.4123L24.1007 11.7884ZM24.0982 11.7916L23.3169 11.1674L23.3114 11.1743L23.306 11.1813L24.0982 11.7916ZM24.0574 11.8202L23.8259 12.7931L24.0938 12.8568L24.3565 12.7744L24.0574 11.8202ZM24.0325 11.814L24.2857 10.8466L24.2857 10.8466L24.0325 11.814ZM23.7602 11.7079L23.3187 12.6052L23.3213 12.6065L23.7602 11.7079ZM23.6717 11.6644L24.1131 10.7671L24.1114 10.7663L23.6717 11.6644ZM23.3558 11.53L23.6656 10.5792L23.6655 10.5791L23.3558 11.53ZM22.6363 11.3713L22.7528 10.3781L22.7527 10.3781L22.6363 11.3713ZM22.492 11.3166L21.8867 12.1127L21.8867 12.1127L22.492 11.3166ZM22.4112 11.1938L23.3816 10.9523L23.3815 10.9519L22.4112 11.1938ZM22.4361 11.0098L21.5772 10.4976L21.577 10.4981L22.4361 11.0098ZM22.55 10.9117L22.9264 11.8382V11.8382L22.55 10.9117ZM21.2722 16.8127L21.6494 15.8866C21.6027 15.8676 21.5616 15.8352 21.5349 15.7996L20.7355 16.4004L19.936 17.0011C20.1845 17.3317 20.5198 17.586 20.8949 17.7388L21.2722 16.8127ZM20.7355 16.4004L21.5349 15.7996C21.6547 15.9591 21.705 16.1684 21.6722 16.3691L20.6852 16.208L19.6983 16.0469C19.6455 16.3706 19.7205 16.7144 19.9361 17.0012L20.7355 16.4004ZM20.6852 16.208L21.6722 16.3691C21.6377 16.5803 21.5228 16.7368 21.3946 16.8333L20.7933 16.0342L20.1921 15.2352C19.9522 15.4157 19.7553 15.6975 19.6983 16.0469L20.6852 16.208ZM20.7933 16.0342L21.3946 16.8333C21.2648 16.931 21.0672 17.0066 20.8327 16.9699L20.9872 15.9819L21.1417 14.9939C20.7717 14.936 20.434 15.0532 20.1921 15.2352L20.7933 16.0342ZM20.9872 15.9819L20.8327 16.9699C20.7344 16.9545 20.6336 16.919 20.5403 16.8602C20.4468 16.8012 20.3776 16.7294 20.3298 16.6606L21.1511 16.09L21.9723 15.5195C21.7729 15.2324 21.4754 15.0461 21.1417 14.9939L20.9872 15.9819ZM21.1511 16.09L20.3418 16.6775L20.3515 16.6908L21.1608 16.1034L21.97 15.516L21.9603 15.5026L21.1511 16.09ZM21.1608 16.1034L20.357 16.6984C20.5286 16.9302 20.759 17.1304 21.037 17.2641L21.4706 16.363L21.9042 15.4619C21.9393 15.4788 21.9565 15.4977 21.9645 15.5084L21.1608 16.1034ZM21.4706 16.363L21.037 17.2641C21.3084 17.3947 21.6276 17.4623 21.9662 17.424L21.8541 16.4304L21.742 15.4367C21.8096 15.429 21.867 15.444 21.9042 15.4619L21.4706 16.363ZM21.8541 16.4304L21.9662 17.4241C22.5748 17.3554 22.958 17.0082 23.1865 16.7794L22.4791 16.0727L21.7716 15.3659C21.7354 15.4021 21.7099 15.4257 21.6909 15.4418C21.6724 15.4575 21.6647 15.4621 21.666 15.4613C21.6683 15.46 21.6786 15.4539 21.6955 15.4478C21.713 15.4416 21.7295 15.4381 21.742 15.4367L21.8541 16.4304ZM22.4791 16.0727L23.193 16.7729C23.2233 16.742 23.252 16.7118 23.2777 16.6844L22.5495 15.9991L21.8212 15.3138C21.7999 15.3365 21.7817 15.3555 21.7651 15.3724L22.4791 16.0727ZM22.5495 15.9991L23.3858 16.5474C23.2688 16.7258 23.0996 16.8443 22.9246 16.9027L22.6079 15.9541L22.2913 15.0056C22.0704 15.0794 21.8599 15.227 21.7132 15.4508L22.5495 15.9991ZM22.6079 15.9541L22.9246 16.9027C22.729 16.968 22.5305 16.9592 22.3595 16.8996L22.6886 15.9553L23.0176 15.011C22.7939 14.9331 22.5378 14.9233 22.2913 15.0056L22.6079 15.9541ZM22.6886 15.9553L22.3595 16.8996C22.1946 16.8422 22.0382 16.7315 21.9259 16.5668L22.752 16.0033L23.5781 15.4399C23.4353 15.2305 23.2334 15.0862 23.0176 15.011L22.6886 15.9553ZM22.752 16.0033L21.9259 16.5668C21.8184 16.4092 21.757 16.2073 21.7759 15.9931L22.772 16.081L23.7682 16.169C23.7924 15.8943 23.7146 15.64 23.5781 15.4399L22.752 16.0033ZM22.772 16.081L21.7759 15.9931C21.7852 15.8877 21.8349 15.8482 21.8204 15.8618L22.5062 16.5896L23.192 17.3174C23.4692 17.0562 23.7243 16.6666 23.7682 16.1689L22.772 16.081ZM22.5062 16.5896L21.8204 15.8618C21.8146 15.8672 21.801 15.8779 21.781 15.888C21.7605 15.8983 21.7471 15.9012 21.7471 15.9012L21.9273 16.8849L22.1075 17.8685C22.4984 17.7969 22.889 17.6029 23.192 17.3174L22.5062 16.5896ZM21.9273 16.8849L21.7472 15.9012C21.7275 15.9048 21.6936 15.9046 21.6494 15.8866L21.2722 16.8127L20.8949 17.7388C21.2618 17.8883 21.6818 17.9465 22.1075 17.8685L21.9273 16.8849ZM22.0324 13.7873L21.5135 14.6421C21.5249 14.649 21.5397 14.6597 21.5505 14.6695C21.5632 14.6811 21.5512 14.6737 21.5314 14.6406C21.5107 14.6063 21.4657 14.5167 21.4629 14.3825C21.4599 14.2344 21.5103 14.1137 21.562 14.0414L22.3755 14.623L23.189 15.2046C23.3681 14.954 23.4689 14.6577 23.4625 14.3419C23.4564 14.0401 23.354 13.7908 23.2454 13.6101C23.0413 13.2705 22.7416 13.048 22.5513 12.9324L22.0324 13.7873ZM22.3755 14.623L21.6521 13.9326C21.6902 13.8926 21.7459 13.8478 21.8201 13.8117C21.8946 13.7755 21.9705 13.7564 22.0401 13.75C22.1708 13.7381 22.2507 13.7726 22.2526 13.7734C22.2578 13.7756 22.2396 13.7681 22.1935 13.7363C22.1452 13.703 22.1083 13.6734 22.0386 13.6199L21.4306 14.4139L20.8226 15.2078C20.8855 15.256 21.1659 15.4883 21.4881 15.6215C21.6621 15.6935 21.9196 15.7694 22.2223 15.7417C22.5529 15.7115 22.8596 15.5641 23.0989 15.3134L22.3755 14.623ZM21.4306 14.4139L21.9697 13.5716C21.6574 13.3718 21.2926 13.3388 20.9727 13.4438C20.6819 13.5393 20.4734 13.7306 20.3438 13.9207C20.1103 14.2629 19.925 15.0214 20.5672 15.5388L21.1945 14.76L21.8219 13.9812C22.0153 14.1371 22.1172 14.3664 22.1257 14.5878C22.1332 14.7839 22.069 14.9407 21.9959 15.0478C21.9235 15.154 21.796 15.2786 21.5966 15.344C21.3681 15.4191 21.105 15.3928 20.8915 15.2561L21.4306 14.4139ZM21.1945 14.76L20.6001 15.5641C21.1171 15.9464 21.7063 16.1682 22.3078 16.0798C22.9264 15.989 23.3725 15.5955 23.5993 15.1347C23.817 14.6923 23.8561 14.1461 23.6483 13.6545C23.4239 13.1233 22.9458 12.7397 22.3213 12.6326L22.1522 13.6182L21.9832 14.6038C21.9864 14.6043 21.9518 14.5981 21.9053 14.5619C21.8594 14.5261 21.8256 14.4793 21.8061 14.4329C21.7721 14.3525 21.7848 14.2921 21.8048 14.2515C21.8339 14.1924 21.9108 14.1167 22.0173 14.101C22.1068 14.0879 22.0411 14.1422 21.789 13.9559L21.1945 14.76ZM22.1522 13.6182L22.3215 12.6326C21.8076 12.5444 21.3503 12.8076 21.1373 13.2062C20.9924 13.4775 20.8428 14.165 21.4499 14.6001L22.0324 13.7873L22.6149 12.9745C22.8795 13.1641 22.9802 13.4347 23.001 13.6361C23.0213 13.8327 22.9758 14.0094 22.9013 14.1488C22.7305 14.4683 22.3642 14.6692 21.983 14.6038L22.1522 13.6182ZM19.2758 12.4644L20.2726 12.5448C20.2396 12.9531 19.9103 13.1431 19.6925 13.1739C19.5725 13.1909 19.3949 13.1805 19.2146 13.0691C19.0097 12.9426 18.8881 12.7374 18.8577 12.5389L19.8461 12.3873L20.8346 12.2358C20.7795 11.8767 20.5777 11.5602 20.2653 11.3674C19.9775 11.1897 19.6654 11.1578 19.4122 11.1936C18.9281 11.2621 18.3382 11.6512 18.2791 12.384L19.2758 12.4644ZM19.8461 12.3873L18.8577 12.5388C18.8666 12.5972 18.8632 12.653 18.8145 12.7502L19.7086 13.1981L20.6026 13.6461C20.8134 13.2254 20.9138 12.7527 20.8346 12.2358L19.8461 12.3873ZM19.7086 13.1981L18.8146 12.7501C18.8765 12.6265 18.9977 12.4858 19.189 12.4026C19.373 12.3226 19.557 12.324 19.7028 12.3635C19.9686 12.4355 20.209 12.6659 20.244 13.0008L19.2494 13.1048L18.2549 13.2089C18.3135 13.769 18.7214 14.1698 19.18 14.294C19.422 14.3595 19.7087 14.3576 19.9867 14.2366C20.2721 14.1125 20.4787 13.8935 20.6026 13.6461L19.7086 13.1981ZM19.2494 13.1048L20.244 13.0008C20.2252 12.8213 20.2449 12.8883 20.2726 12.5448L19.2758 12.4644L18.2791 12.384C18.2742 12.4442 18.2105 12.7844 18.2549 13.2089L19.2494 13.1048ZM23.0432 12.3207L23.8375 12.9282C23.8032 12.9731 23.7255 13.0596 23.5868 13.1235C23.4293 13.1961 23.2364 13.2177 23.0512 13.1637L23.3312 12.2037L23.6111 11.2437C22.9324 11.0458 22.4469 11.4542 22.2488 11.7133L23.0432 12.3207ZM23.3312 12.2037L23.051 13.1637C22.898 13.119 22.752 13.0088 22.6633 12.8563C22.5895 12.7296 22.5865 12.6287 22.5863 12.611C22.5859 12.5878 22.589 12.5889 22.5829 12.6122C22.5771 12.6342 22.5704 12.648 22.572 12.6449L23.4632 13.0985L24.3544 13.5521C24.4751 13.3151 24.5919 12.9575 24.586 12.5799C24.583 12.3842 24.5457 12.1147 24.3918 11.8502C24.2229 11.5599 23.9507 11.3428 23.6113 11.2437L23.3312 12.2037ZM23.4632 13.0985L22.5721 12.6447C22.7195 12.3553 22.9749 12.2548 23.1363 12.2325C23.3014 12.2098 23.5972 12.2394 23.8219 12.5053L23.058 13.1507L22.2942 13.796C22.6228 14.185 23.0856 14.2584 23.4095 14.2138C23.7297 14.1696 24.1357 13.9816 24.3543 13.5523L23.4632 13.0985ZM23.058 13.1507L23.8221 12.5055C23.8569 12.5468 23.8712 12.5778 23.8768 12.5916C23.883 12.6067 23.8888 12.626 23.8915 12.6535C23.8946 12.6859 23.9044 12.9 23.6989 13.0885L23.0229 12.3517L22.3468 11.6148C21.9259 12.001 21.8686 12.5143 21.9008 12.8465C21.9333 13.1817 22.0677 13.5279 22.294 13.7959L23.058 13.1507ZM23.0229 12.3517L23.8911 12.8478C23.8819 12.8639 23.8639 12.8937 23.837 12.9289L23.0432 12.3207L22.2494 11.7126C22.2065 11.7685 22.1755 11.819 22.1546 11.8556L23.0229 12.3517ZM19.7033 11.0445L19.8755 12.0296L19.9344 12.0193L19.7622 11.0342L19.5901 10.0492L19.5312 10.0595L19.7033 11.0445ZM19.7622 11.0342L19.9324 12.0196C19.9726 12.0127 19.9931 12.0098 20.0063 12.0085C20.0195 12.0071 20.008 12.0093 19.9802 12.0073C19.9263 12.0035 19.7212 11.9746 19.5497 11.78L20.3 11.1188L21.0503 10.4577C20.7498 10.1168 20.367 10.0298 20.122 10.0124C19.8916 9.996 19.6804 10.0336 19.5921 10.0488L19.7622 11.0342ZM20.3 11.1188L19.5498 11.78C19.4329 11.6474 19.3704 11.4879 19.3615 11.3215C19.3518 11.1391 19.4096 10.8487 19.6715 10.637L20.3 11.4149L20.9285 12.1927C21.2823 11.9068 21.3743 11.5071 21.3587 11.2147C21.3439 10.9382 21.2354 10.6678 21.0502 10.4576L20.3 11.1188ZM20.3 11.4149L19.6714 10.6371C19.699 10.6148 19.7305 10.5936 19.7653 10.5749C19.8001 10.5562 19.8344 10.542 19.8669 10.5315C19.9307 10.5108 19.9777 10.5074 19.9883 10.5068C19.9936 10.5065 19.9932 10.5068 19.9831 10.5067C19.9717 10.5067 19.9589 10.5064 19.933 10.5057C19.9106 10.5052 19.8769 10.5043 19.8408 10.5042C19.8037 10.5041 19.7587 10.5047 19.7089 10.5076L19.7659 11.5059L19.8229 12.5043C19.8214 12.5044 19.8244 12.5042 19.8348 12.5042C19.8462 12.5042 19.8595 12.5045 19.8836 12.5051C19.9206 12.506 20.0088 12.5089 20.1016 12.5036C20.3173 12.4914 20.6307 12.4333 20.9286 12.1926L20.3 11.4149ZM19.7659 11.5059L19.7087 10.5076C19.4737 10.521 19.2475 10.5601 19.0245 10.6238L19.299 11.5854L19.5735 12.547C19.6581 12.5228 19.7387 12.5091 19.8231 12.5043L19.7659 11.5059ZM19.299 11.5854L19.0246 10.6238C18.52 10.7678 18.1288 11.0275 17.8421 11.2196L18.3986 12.0504L18.9551 12.8813C19.2446 12.6873 19.4033 12.5955 19.5734 12.547L19.299 11.5854ZM18.3986 12.0504L17.8422 11.2195C18.0335 11.0914 18.2831 11.0263 18.5438 11.072C18.7874 11.1148 18.97 11.2413 19.0881 11.371C19.301 11.6051 19.4458 12.0261 19.2307 12.4471L18.3402 11.9922L17.4497 11.5372C17.2165 11.9935 17.3716 12.4563 17.6088 12.717C17.739 12.8601 17.9372 12.9961 18.1982 13.0419C18.4761 13.0907 18.7448 13.0221 18.9549 12.8814L18.3986 12.0504ZM18.3402 11.9922L19.2306 12.4474C19.2715 12.3673 19.403 12.23 19.6022 12.1295L19.1518 11.2367L18.7013 10.3439C18.2548 10.5692 17.7415 10.9664 17.4498 11.5369L18.3402 11.9922ZM19.1518 11.2367L19.6022 12.1295C19.7169 12.0717 19.8095 12.0411 19.8743 12.0298L19.7033 11.0445L19.5323 10.0593C19.2158 10.1142 18.9313 10.2278 18.7013 10.3439L19.1518 11.2367ZM22.7032 10.8988L22.503 11.8786L22.5481 11.8878L22.7483 10.908L22.9485 9.92826L22.9034 9.91905L22.7032 10.8988ZM22.7483 10.908L22.544 11.8869C22.754 11.9307 22.9412 11.9864 23.0804 12.0556C23.2248 12.1273 23.2258 12.1674 23.2083 12.131L24.1088 11.6963L25.0093 11.2615C24.7595 10.7439 24.3256 10.441 23.9704 10.2645C23.6102 10.0855 23.2333 9.98769 22.9526 9.92911L22.7483 10.908ZM24.1088 11.6963L23.1172 11.8253C23.1167 11.8216 23.1032 11.7304 23.124 11.6028C23.1361 11.5292 23.1598 11.4408 23.2048 11.3471C23.2505 11.2517 23.3018 11.1863 23.3192 11.1645L24.1007 11.7884L24.8822 12.4123C24.9664 12.3068 25.0618 12.1459 25.0978 11.9257C25.123 11.7715 25.1098 11.639 25.1005 11.5672L24.1088 11.6963ZM24.1007 11.7884L23.3194 11.1643L23.3169 11.1674L24.0982 11.7916L24.8795 12.4157L24.882 12.4126L24.1007 11.7884ZM24.0982 11.7916L23.306 11.1813C23.2986 11.1909 23.2929 11.1987 23.2895 11.2033C23.2878 11.2056 23.2864 11.2076 23.2856 11.2087C23.2851 11.2093 23.2848 11.2098 23.2846 11.2101C23.2845 11.2102 23.2844 11.2104 23.2843 11.2104C23.2843 11.2105 23.2842 11.2105 23.2842 11.2106C23.2832 11.212 23.2916 11.2002 23.3026 11.186C23.3287 11.1523 23.3707 11.1027 23.4303 11.0508C23.5535 10.9437 23.6772 10.8914 23.7582 10.866L24.0574 11.8202L24.3565 12.7744C24.4671 12.7397 24.608 12.6772 24.7426 12.5601C24.808 12.5033 24.8543 12.4487 24.884 12.4103C24.8968 12.3938 24.9069 12.3798 24.9074 12.379C24.9112 12.3738 24.9016 12.3873 24.8904 12.4019L24.0982 11.7916ZM24.0574 11.8202L24.2888 10.8474C24.2878 10.8471 24.2868 10.8469 24.2857 10.8466L24.0325 11.814L23.7794 12.7814C23.795 12.7855 23.8105 12.7894 23.8259 12.7931L24.0574 11.8202ZM24.0325 11.814L24.2857 10.8466C24.2761 10.8441 24.2625 10.8403 24.199 10.8093L23.7602 11.7079L23.3213 12.6065C23.421 12.6552 23.5759 12.7282 23.7794 12.7814L24.0325 11.814ZM23.7602 11.7079L24.2016 10.8106L24.1131 10.7671L23.6717 11.6644L23.2303 12.5617L23.3187 12.6052L23.7602 11.7079ZM23.6717 11.6644L24.1114 10.7663C24.0037 10.7135 23.8467 10.6382 23.6656 10.5792L23.3558 11.53L23.0461 12.4808C23.0844 12.4933 23.1345 12.5148 23.232 12.5625L23.6717 11.6644ZM23.3558 11.53L23.6655 10.5791C23.3709 10.4832 23.0654 10.4148 22.7528 10.3781L22.6363 11.3713L22.5198 12.3645C22.6963 12.3852 22.8725 12.4243 23.0462 12.4808L23.3558 11.53ZM22.6363 11.3713L22.7527 10.3781C22.8373 10.388 22.9661 10.4209 23.0972 10.5206L22.492 11.3166L21.8867 12.1127C22.0984 12.2736 22.3293 12.3422 22.5199 12.3645L22.6363 11.3713ZM22.492 11.3166L23.0972 10.5206C23.2277 10.6198 23.3362 10.7699 23.3816 10.9523L22.4112 11.1938L21.4408 11.4354C21.5129 11.7247 21.6797 11.9553 21.8867 12.1127L22.492 11.3166ZM22.4112 11.1938L23.3815 10.9519C23.3926 10.9965 23.4116 11.0957 23.3954 11.2245C23.3785 11.3579 23.3321 11.4596 23.2953 11.5215L22.4361 11.0098L21.577 10.4981C21.5029 10.6224 21.4354 10.7815 21.4111 10.974C21.3874 11.162 21.4125 11.3219 21.4409 11.4357L22.4112 11.1938ZM22.4361 11.0098L23.295 11.522C23.2072 11.6692 23.0741 11.7782 22.9264 11.8382L22.55 10.9117L22.1737 9.98524C21.9341 10.0826 21.721 10.2565 21.5772 10.4976L22.4361 11.0098ZM22.55 10.9117L22.9264 11.8382C22.7789 11.8981 22.632 11.9044 22.5071 11.8794L22.7032 10.8988L22.8994 9.91823C22.6685 9.87204 22.4148 9.88727 22.1737 9.98524L22.55 10.9117Z" fill="black" mask="url(#path-7-inside-2_122_442)"/>
<mask id="path-9-inside-3_122_442" fill="white">
<path fill-rule="evenodd" clip-rule="evenodd" d="M25.1216 14.4339C25.0176 14.2945 24.8307 14.1116 24.6416 14.1214C24.6174 14.1227 24.6084 14.1488 24.6229 14.1665C24.6847 14.2419 24.7692 14.2956 24.8312 14.3726C24.9045 14.4637 24.9575 14.5736 24.9919 14.6847C25.0419 14.8461 25.0557 15.0289 25.0111 15.1931C24.9326 15.4825 24.6841 15.6946 24.4131 15.8029C24.1448 15.9101 23.822 15.9467 23.5683 15.7896C23.1938 15.5577 22.8761 15.2234 22.4054 15.2168C22.2953 15.2152 22.2177 15.2656 22.1715 15.3375C22.1251 15.2682 22.0484 15.2191 21.9411 15.2179C21.4134 15.212 21.0196 15.5747 20.5767 15.8009C20.2774 15.9537 19.8901 15.9063 19.5813 15.8053C19.29 15.71 18.9738 15.5188 18.8639 15.2169C18.8032 15.0501 18.8168 14.8554 18.8791 14.6911C18.9201 14.583 18.9833 14.4785 19.0615 14.3936C19.1426 14.3055 19.2493 14.2501 19.3323 14.1665C19.3493 14.1495 19.3359 14.1229 19.3136 14.1214C18.9607 14.0975 18.6421 14.5182 18.5755 14.8235C18.5099 15.1241 18.6077 15.4239 18.8057 15.6533C19.2084 16.1196 19.954 16.2734 20.5343 16.1364C21.004 16.0255 21.4501 15.7701 21.9411 15.8067C22.0487 15.8148 22.126 15.77 22.1726 15.7021C22.2193 15.772 22.2971 15.8177 22.4054 15.8072C22.863 15.7629 23.2715 16.0865 23.7157 16.1656C24.0693 16.2284 24.4514 16.1436 24.7544 15.9534C25.0712 15.7545 25.2942 15.4355 25.3088 15.0552C25.3173 14.8364 25.253 14.61 25.1216 14.4339Z"/>
</mask>
<path fill-rule="evenodd" clip-rule="evenodd" d="M25.1216 14.4339C25.0176 14.2945 24.8307 14.1116 24.6416 14.1214C24.6174 14.1227 24.6084 14.1488 24.6229 14.1665C24.6847 14.2419 24.7692 14.2956 24.8312 14.3726C24.9045 14.4637 24.9575 14.5736 24.9919 14.6847C25.0419 14.8461 25.0557 15.0289 25.0111 15.1931C24.9326 15.4825 24.6841 15.6946 24.4131 15.8029C24.1448 15.9101 23.822 15.9467 23.5683 15.7896C23.1938 15.5577 22.8761 15.2234 22.4054 15.2168C22.2953 15.2152 22.2177 15.2656 22.1715 15.3375C22.1251 15.2682 22.0484 15.2191 21.9411 15.2179C21.4134 15.212 21.0196 15.5747 20.5767 15.8009C20.2774 15.9537 19.8901 15.9063 19.5813 15.8053C19.29 15.71 18.9738 15.5188 18.8639 15.2169C18.8032 15.0501 18.8168 14.8554 18.8791 14.6911C18.9201 14.583 18.9833 14.4785 19.0615 14.3936C19.1426 14.3055 19.2493 14.2501 19.3323 14.1665C19.3493 14.1495 19.3359 14.1229 19.3136 14.1214C18.9607 14.0975 18.6421 14.5182 18.5755 14.8235C18.5099 15.1241 18.6077 15.4239 18.8057 15.6533C19.2084 16.1196 19.954 16.2734 20.5343 16.1364C21.004 16.0255 21.4501 15.7701 21.9411 15.8067C22.0487 15.8148 22.126 15.77 22.1726 15.7021C22.2193 15.772 22.2971 15.8177 22.4054 15.8072C22.863 15.7629 23.2715 16.0865 23.7157 16.1656C24.0693 16.2284 24.4514 16.1436 24.7544 15.9534C25.0712 15.7545 25.2942 15.4355 25.3088 15.0552C25.3173 14.8364 25.253 14.61 25.1216 14.4339Z" fill="black"/>
<path d="M25.1216 14.4339L25.9232 13.836V13.836L25.1216 14.4339ZM24.6416 14.1214L24.6934 15.1201L24.6936 15.12L24.6416 14.1214ZM24.6229 14.1665L25.3961 13.5324L25.3959 13.5321L24.6229 14.1665ZM24.8312 14.3726L25.6102 13.7456L25.6102 13.7455L24.8312 14.3726ZM24.9919 14.6847L24.0367 14.9806L24.0367 14.9806L24.9919 14.6847ZM25.0111 15.1931L24.0461 14.931L24.0461 14.931L25.0111 15.1931ZM24.4131 15.8029L24.042 14.8743L24.042 14.8743L24.4131 15.8029ZM23.5683 15.7896L23.0418 16.6398L23.0418 16.6398L23.5683 15.7896ZM22.4054 15.2168L22.4195 14.2169L22.4194 14.2169L22.4054 15.2168ZM22.1715 15.3375L21.3408 15.8941L22.1887 17.1596L23.0126 15.8783L22.1715 15.3375ZM21.9411 15.2179L21.9525 14.218L21.9523 14.218L21.9411 15.2179ZM20.5767 15.8009L20.1219 14.9102L20.1219 14.9102L20.5767 15.8009ZM19.5813 15.8053L19.8921 14.8548L19.892 14.8548L19.5813 15.8053ZM18.8639 15.2169L17.9241 15.5587L17.9242 15.5589L18.8639 15.2169ZM18.8791 14.6911L19.8142 15.0454L19.8143 15.0453L18.8791 14.6911ZM19.0615 14.3936L19.7971 15.071L19.7972 15.0709L19.0615 14.3936ZM19.3323 14.1665L20.0413 14.8718L20.0415 14.8716L19.3323 14.1665ZM19.3136 14.1214L19.3823 13.1238L19.3812 13.1237L19.3136 14.1214ZM18.5755 14.8235L19.5525 15.0367L19.5525 15.0367L18.5755 14.8235ZM18.8057 15.6533L18.0488 16.3067L18.0488 16.3068L18.8057 15.6533ZM20.5343 16.1364L20.3045 15.1631L20.3045 15.1632L20.5343 16.1364ZM21.9411 15.8067L22.0157 14.8095L22.0156 14.8095L21.9411 15.8067ZM22.1726 15.7021L23.0042 15.1466L22.1839 13.9186L21.3482 15.1361L22.1726 15.7021ZM22.4054 15.8072L22.5015 16.8026L22.5017 16.8026L22.4054 15.8072ZM23.7157 16.1656L23.5405 17.1501L23.5406 17.1501L23.7157 16.1656ZM24.7544 15.9534L25.2861 16.8003L25.2861 16.8003L24.7544 15.9534ZM25.3088 15.0552L26.3081 15.0938L26.3081 15.0937L25.3088 15.0552ZM25.1216 14.4339L25.9232 13.836C25.832 13.7138 25.6931 13.5551 25.5099 13.419C25.3414 13.2938 25.0175 13.1005 24.5897 13.1227L24.6416 14.1214L24.6936 15.12C24.57 15.1265 24.474 15.0999 24.4165 15.0774C24.3605 15.0554 24.3276 15.0321 24.3172 15.0244C24.3006 15.0121 24.3072 15.0146 24.3201 15.0318L25.1216 14.4339ZM24.6416 14.1214L24.5899 13.1227C24.1852 13.1437 23.8325 13.399 23.6861 13.7744C23.5484 14.1275 23.6183 14.5187 23.8499 14.8009L24.6229 14.1665L25.3959 13.5321C25.613 13.7966 25.6801 14.1659 25.5494 14.5011C25.4099 14.8587 25.0738 15.1003 24.6934 15.1201L24.6416 14.1214ZM24.6229 14.1665L23.8496 14.8006C23.8985 14.8601 23.9454 14.9077 23.9813 14.942C24.0153 14.9746 24.0487 15.004 24.0635 15.0171C24.0835 15.0348 24.0861 15.0374 24.0858 15.0371C24.0839 15.0353 24.0703 15.0221 24.0522 14.9996L24.8312 14.3726L25.6102 13.7455C25.5611 13.6846 25.5137 13.6357 25.4766 13.5998C25.4411 13.5655 25.4071 13.5355 25.3905 13.5208C25.3803 13.5117 25.3748 13.5068 25.3697 13.5023C25.3651 13.4981 25.3638 13.4969 25.3643 13.4974C25.3651 13.498 25.3782 13.5106 25.3961 13.5324L24.6229 14.1665ZM24.8312 14.3726L24.0522 14.9995C24.0398 14.9842 24.0347 14.9743 24.0339 14.9727C24.0331 14.9711 24.0345 14.9737 24.0367 14.9806L24.9919 14.6847L25.9471 14.3888C25.884 14.1851 25.7791 13.9554 25.6102 13.7456L24.8312 14.3726ZM24.9919 14.6847L24.0367 14.9806C24.0383 14.986 24.0383 14.9887 24.0381 14.9856C24.038 14.9828 24.0373 14.9635 24.0461 14.931L25.0111 15.1931L25.9762 15.4551C26.0809 15.0695 26.0402 14.6895 25.9471 14.3888L24.9919 14.6847ZM25.0111 15.1931L24.0461 14.931C24.0614 14.8745 24.0874 14.8487 24.0876 14.8485C24.0879 14.8482 24.0841 14.8519 24.075 14.8576C24.0661 14.8633 24.0547 14.8692 24.042 14.8743L24.4131 15.8029L24.7842 16.7315C25.2398 16.5494 25.7892 16.1439 25.9762 15.4551L25.0111 15.1931ZM24.4131 15.8029L24.042 14.8743C24.0202 14.883 24.001 14.8888 23.9858 14.8921C23.9704 14.8956 23.9636 14.8956 23.9652 14.8956C23.967 14.8955 23.9813 14.8954 24.0049 14.9011C24.0296 14.9071 24.0614 14.9188 24.0947 14.9394L23.5683 15.7896L23.0418 16.6398C23.6867 17.0391 24.3853 16.8909 24.7842 16.7315L24.4131 15.8029ZM23.5683 15.7896L24.0948 14.9395C24.0338 14.9017 23.9706 14.857 23.8755 14.7891C23.79 14.7281 23.6726 14.644 23.5454 14.5661C23.2814 14.4043 22.9051 14.2237 22.4195 14.2169L22.4054 15.2168L22.3914 16.2167C22.3916 16.2167 22.3914 16.2167 22.391 16.2167C22.3907 16.2166 22.3905 16.2166 22.3906 16.2166C22.3907 16.2166 22.3937 16.2172 22.4006 16.2196C22.4156 16.2249 22.4461 16.238 22.5005 16.2714C22.5584 16.3069 22.6199 16.3502 22.714 16.4173C22.7985 16.4776 22.9155 16.5616 23.0418 16.6398L23.5683 15.7896ZM22.4054 15.2168L22.4194 14.2169C21.9499 14.2103 21.5555 14.4466 21.3304 14.7966L22.1715 15.3375L23.0126 15.8783C22.9547 15.9685 22.8669 16.0597 22.7458 16.1262C22.6226 16.1938 22.497 16.2182 22.3915 16.2167L22.4054 15.2168ZM22.1715 15.3375L23.0023 14.7808C22.7777 14.4457 22.3987 14.2231 21.9525 14.218L21.9411 15.2179L21.9297 16.2178C21.8297 16.2167 21.7127 16.1918 21.5978 16.1287C21.4846 16.0665 21.3993 15.9815 21.3408 15.8941L22.1715 15.3375ZM21.9411 15.2179L21.9523 14.218C21.446 14.2123 21.0404 14.3873 20.7534 14.5417C20.6136 14.6169 20.4795 14.7001 20.3808 14.7604C20.2719 14.827 20.1943 14.8733 20.1219 14.9102L20.5767 15.8009L21.0314 16.6915C21.1805 16.6154 21.3182 16.5315 21.4242 16.4666C21.5404 16.3956 21.6208 16.3461 21.7008 16.3031C21.8533 16.221 21.9085 16.2176 21.9299 16.2178L21.9411 15.2179ZM20.5767 15.8009L20.1219 14.9102C20.1642 14.8886 20.1721 14.9005 20.1136 14.8987C20.0571 14.897 19.9787 14.8831 19.8921 14.8548L19.5813 15.8053L19.2704 16.7557C19.6631 16.8842 20.3734 17.0275 21.0314 16.6915L20.5767 15.8009ZM19.5813 15.8053L19.892 14.8548C19.8616 14.8448 19.8328 14.8331 19.8077 14.8206C19.7824 14.808 19.7658 14.797 19.7568 14.7902C19.7352 14.774 19.775 14.7963 19.8036 14.8749L18.8639 15.2169L17.9242 15.5589C18.1933 16.2984 18.8814 16.6286 19.2705 16.7558L19.5813 15.8053ZM18.8639 15.2169L19.8037 14.8751C19.8238 14.9305 19.8254 14.9721 19.8246 14.993C19.8238 15.0141 19.82 15.0303 19.8142 15.0454L18.8791 14.6911L17.944 14.3367C17.8144 14.6789 17.7661 15.1243 17.9241 15.5587L18.8639 15.2169ZM18.8791 14.6911L19.8143 15.0453C19.8124 15.0502 19.8109 15.053 19.8096 15.0551C19.8083 15.0572 19.8048 15.0626 19.7971 15.071L19.0615 14.3936L18.3259 13.7162C18.157 13.8996 18.0279 14.1151 17.944 14.3368L18.8791 14.6911ZM19.0615 14.3936L19.7972 15.0709C19.7674 15.1032 19.7443 15.1171 19.7953 15.079C19.8124 15.0662 19.8519 15.037 19.8902 15.0064C19.9313 14.9737 19.9848 14.9286 20.0413 14.8718L19.3323 14.1665L18.6234 13.4613C18.6383 13.4463 18.6474 13.4394 18.6425 13.4433C18.635 13.4494 18.6271 13.4552 18.5971 13.4777C18.5537 13.5102 18.4367 13.5958 18.3258 13.7163L19.0615 14.3936ZM19.3323 14.1665L20.0415 14.8716C20.3671 14.544 20.4083 14.0818 20.2502 13.7291C20.1047 13.4043 19.7843 13.1514 19.3823 13.1238L19.3136 14.1214L19.245 15.119C18.8652 15.0929 18.5627 14.854 18.4252 14.5471C18.2751 14.2124 18.3145 13.772 18.6231 13.4615L19.3323 14.1665ZM19.3136 14.1214L19.3812 13.1237C18.7801 13.083 18.3402 13.4179 18.109 13.6636C17.867 13.9208 17.6746 14.2613 17.5985 14.6102L18.5755 14.8235L19.5525 15.0367C19.5453 15.0694 19.5392 15.0751 19.547 15.0607C19.5537 15.0485 19.5616 15.0384 19.5654 15.0344C19.5705 15.029 19.5552 15.0475 19.5111 15.0699C19.4639 15.0939 19.371 15.1276 19.246 15.1191L19.3136 14.1214ZM18.5755 14.8235L17.5985 14.6102C17.4553 15.2661 17.6794 15.8789 18.0488 16.3067L18.8057 15.6533L19.5627 14.9998C19.5504 14.9856 19.55 14.9792 19.5521 14.9862C19.5532 14.99 19.5547 14.997 19.5551 15.0066C19.5555 15.0165 19.5546 15.0269 19.5525 15.0367L18.5755 14.8235ZM18.8057 15.6533L18.0488 16.3068C18.7545 17.124 19.9188 17.3093 20.7641 17.1096L20.5343 16.1364L20.3045 15.1632C19.9892 15.2376 19.6623 15.1152 19.5626 14.9997L18.8057 15.6533ZM20.5343 16.1364L20.7641 17.1096C21.0404 17.0444 21.4021 16.9105 21.5308 16.8698C21.7246 16.8086 21.813 16.8 21.8666 16.804L21.9411 15.8067L22.0156 14.8095C21.5782 14.7769 21.1981 14.8776 20.9286 14.9626C20.5941 15.0683 20.498 15.1175 20.3045 15.1631L20.5343 16.1364ZM21.9411 15.8067L21.8665 16.804C22.3347 16.839 22.7521 16.6249 22.9971 16.268L22.1726 15.7021L21.3482 15.1361C21.4138 15.0405 21.5119 14.9468 21.644 14.8828C21.7777 14.8181 21.9096 14.8016 22.0157 14.8095L21.9411 15.8067ZM22.1726 15.7021L21.341 16.2575C21.5842 16.6215 22.0122 16.8498 22.5015 16.8026L22.4054 15.8072L22.3093 14.8118C22.422 14.801 22.562 14.8169 22.7028 14.8853C22.841 14.9524 22.9401 15.0507 23.0042 15.1466L22.1726 15.7021ZM22.4054 15.8072L22.5017 16.8026C22.4755 16.8051 22.4994 16.7913 22.6968 16.8697C22.7535 16.8922 22.9271 16.9649 23.0346 17.0055C23.1693 17.0564 23.3431 17.115 23.5405 17.1501L23.7157 16.1656L23.8908 15.181C23.7998 15.1648 23.7352 15.13 23.4344 15.0106C23.2021 14.9185 22.793 14.765 22.3091 14.8119L22.4054 15.8072ZM23.7157 16.1656L23.5406 17.1501C24.1578 17.2599 24.7897 17.112 25.2861 16.8003L24.7544 15.9534L24.2227 15.1064C24.113 15.1753 23.9809 15.197 23.8907 15.181L23.7157 16.1656ZM24.7544 15.9534L25.2861 16.8003C25.8242 16.4625 26.2782 15.8677 26.3081 15.0938L25.3088 15.0552L24.3096 15.0166C24.3095 15.0174 24.3103 15.0213 24.3021 15.0341C24.2921 15.0498 24.2683 15.0778 24.2227 15.1065L24.7544 15.9534ZM25.3088 15.0552L26.3081 15.0937C26.3246 14.6647 26.2018 14.2096 25.9232 13.836L25.1216 14.4339L24.3201 15.0318C24.3149 15.025 24.3121 15.0198 24.3106 15.0169C24.3092 15.014 24.3089 15.0127 24.309 15.013C24.3091 15.0133 24.3093 15.0143 24.3095 15.0155C24.3096 15.0168 24.3096 15.0173 24.3096 15.0167L25.3088 15.0552Z" fill="black" mask="url(#path-9-inside-3_122_442)"/>
</g>
</svg>
