<svg width="35" height="35" viewBox="0 0 35 35" fill="none" xmlns="http://www.w3.org/2000/svg">
<circle cx="17.5" cy="17.5" r="17" fill="#D9D9D9" stroke="#247C53"/>
<mask id="mask0_122_425" style="mask-type:alpha" maskUnits="userSpaceOnUse" x="0" y="0" width="35" height="35">
<circle cx="17.5" cy="17.5" r="17.5" fill="#D9D9D9"/>
</mask>
<g mask="url(#mask0_122_425)">
<path fill-rule="evenodd" clip-rule="evenodd" d="M16.5629 16.8566C17.2672 16.3198 19.0354 16.0784 19.7871 16.5953C20.5296 17.1143 20.6105 17.9537 20.9565 18.7259C21.283 18.5718 21.822 18.7925 21.9167 19.0957C22.0341 19.2387 22.0393 19.6404 22.1203 19.8327C25.6424 20.3938 26.1771 23.1423 26.601 26.2627C27.1619 29.429 28.435 32.5884 27.8823 35.8467C27.9543 35.951 28.0111 36.0524 28.0636 36.1728C28.1894 36.387 28.0274 36.6903 27.7736 36.6785C27.4452 36.6497 27.12 36.6103 26.79 36.598C25.8753 36.5662 24.9597 36.5699 24.0446 36.5816L23.9198 36.5832C19.3081 36.6407 14.6965 36.7539 10.0846 36.7839C9.91726 36.7842 9.83535 36.634 9.85769 36.4858C9.90268 36.1875 9.94442 35.8891 9.98799 35.5906C8.89714 35.879 7.73747 35.9516 6.6497 35.621C6.57361 35.5434 6.82701 35.5854 6.86721 35.5736C5.86612 34.8889 6.16508 33.4465 6.25376 32.4076C6.80518 28.8476 6.99957 24.9088 9.13005 21.871C10.0517 20.6313 11.403 19.6498 12.9557 19.4289L12.9988 19.423C13.4528 19.3624 13.9588 19.3429 14.3557 19.0957C14.8022 18.7389 14.9924 18.0798 15.4621 18.0736C15.6172 18.0716 15.8282 18.2679 16.0552 18.4013C16.0722 18.108 16.2301 17.8604 16.265 17.633L16.2678 17.6136C16.3042 17.3484 16.2544 17.1098 16.5629 16.8566ZM24.1322 26.3567C23.1424 25.6685 20.5855 26.0143 20.5269 26.0528C20.3981 26.1377 20.3426 26.1452 20.2729 26.2554C20.204 26.2645 20.1353 26.274 20.0666 26.2837C19.9287 26.3288 20.0309 26.4985 20.1901 26.438C20.0943 26.8513 20.3761 27.1453 20.4883 27.554C20.5248 27.6867 20.4897 27.9253 20.4883 28.0609C20.4992 28.2338 20.6902 28.438 20.6583 28.6114C20.5452 29.228 19.9312 29.8294 20.1901 30.4274C20.3616 30.7651 20.8773 30.9373 21.2202 31.0521C21.9306 31.325 23.1685 31.0418 23.5813 30.4274C23.8015 30.0996 24.0565 29.2729 24.1878 29.0165L24.2169 28.6097C24.2887 27.5985 24.3525 26.5099 24.1322 26.3567Z" fill="white"/>
<path fill-rule="evenodd" clip-rule="evenodd" d="M15.2897 18.014C15.358 17.9535 15.4592 18.0296 15.4157 18.1114C15.3181 18.2953 15.2181 18.4695 15.0871 18.6321C15.0077 18.7306 14.9226 18.8239 14.8364 18.916C15.0576 19.1076 15.2474 19.3454 15.4265 19.5683C15.6556 19.8533 15.8722 20.1505 16.1294 20.4113C16.383 20.6685 16.6634 20.8484 17.0025 20.9683L17.071 20.9921C17.4116 21.1118 17.7756 21.2734 17.9676 21.5962C18.0055 21.6599 17.9293 21.7385 17.8652 21.6988C17.5315 21.492 17.1395 21.4505 16.7764 21.3138C16.4256 21.1819 16.1198 20.9787 15.8496 20.7195C15.5798 20.4607 15.3533 20.1663 15.1171 19.878C14.8835 19.593 14.6319 19.3496 14.3556 19.1085C13.9291 19.3957 13.4424 19.5206 12.9474 19.6433L12.8934 19.6567C12.3979 19.7795 11.905 19.9221 11.4401 20.136C11.0302 20.3245 10.627 20.5496 10.2931 20.8564C9.93868 21.182 9.66283 21.5978 9.41035 22.0045C8.84558 22.9143 8.44852 23.911 8.09897 24.9198C7.73541 25.9691 7.43131 27.0395 7.18582 28.1225C7.06096 28.6735 6.95956 29.2283 6.87622 29.787C6.8361 30.0561 6.80046 30.3257 6.76916 30.596C6.73575 30.8846 6.72808 31.1815 6.63963 31.459C6.60171 31.5779 6.51217 31.6272 6.42255 31.623L6.40435 31.8509C6.38021 32.1547 6.35771 32.4586 6.35011 32.7643C6.3375 33.2726 6.34322 33.7795 6.37974 34.2867L6.38492 34.3558C6.41362 34.726 6.47776 35.142 6.75587 35.413C7.04387 35.6938 7.48678 35.782 7.87496 35.7871C8.77907 35.7989 9.64936 35.3713 10.4494 34.9962C11.2734 34.6099 12.0748 34.181 12.8571 33.716C13.2554 33.4791 13.6495 33.2344 14.0385 32.9825C14.2294 32.8589 14.419 32.7332 14.6072 32.6054C14.7149 32.5323 14.817 32.4521 14.9267 32.3871C14.873 32.337 14.849 32.2583 14.894 32.1895C14.5769 31.914 14.4449 31.4223 14.4295 31.0244C14.417 30.7033 14.4642 30.383 14.5015 30.0649C14.5203 29.9045 14.5435 29.7443 14.5676 29.5846C14.5771 29.5216 14.5844 29.4541 14.5955 29.3875C13.7392 29.8585 12.8589 30.278 11.9552 30.6506C11.492 30.8417 11.0229 31.0134 10.5473 31.1708L10.4509 31.2026C10.0002 31.3502 9.53882 31.4897 9.07295 31.5741C9.04804 31.5786 9.02781 31.5418 9.05441 31.5301C9.50841 31.3296 9.97814 31.1604 10.439 30.9758L10.5147 30.9449C10.506 30.9444 10.497 30.9432 10.4876 30.941C10.2173 30.8757 9.94915 30.775 9.68409 30.6903C9.43808 30.6117 9.16169 30.5623 8.93175 30.4436C8.91406 30.4345 8.92396 30.4099 8.94119 30.4087C9.19964 30.3908 9.4802 30.4662 9.73359 30.5105L9.82878 30.5272C9.98825 30.5554 10.1513 30.5856 10.3099 30.6251C10.3157 30.5719 10.3454 30.5184 10.3876 30.4871C10.8526 30.1424 10.8054 29.4463 10.8551 28.9329L10.892 28.5518C10.9569 27.8848 11.0255 27.2179 11.1298 26.5558C11.1353 26.5205 11.19 26.5306 11.1902 26.564C11.1956 27.3846 11.1337 28.2015 11.1027 29.0209L11.0979 29.1553C11.0807 29.6609 11.0673 30.1859 10.7491 30.5749C10.7936 30.5489 10.8538 30.5489 10.8898 30.5918C10.9341 30.6445 10.9597 30.7037 10.9589 30.7619C11.2463 30.6412 11.5325 30.5174 11.8173 30.3912C12.733 29.9851 13.6295 29.5307 14.5023 29.039C14.5962 28.9861 14.6855 29.0277 14.732 29.0974L14.7387 29.0965C14.7398 29.0963 14.7409 29.0962 14.7421 29.0962L14.7487 29.0959L14.7495 29.0959C14.8723 29.0284 15.0397 29.0765 15.1451 29.175C15.1482 29.178 15.1509 29.1812 15.1537 29.1844C15.2871 29.1244 15.4118 29.0434 15.5249 28.9408C15.7563 28.7308 15.9524 28.4712 16.1233 28.2108C16.438 27.7313 16.7054 27.1981 17.1305 26.8034C17.476 26.4827 17.9042 26.283 18.3535 26.1577C18.3517 26.1446 18.3567 26.1306 18.3657 26.1212C18.3888 26.0976 18.4053 26.0894 18.4351 26.1037C18.4375 26.1049 18.4389 26.1065 18.4399 26.1082L18.4837 26.0332C18.5077 25.9926 18.5322 25.9516 18.5407 25.9408C18.5918 25.8765 18.6443 25.8127 18.6976 25.7503C18.7879 25.6445 18.8909 25.5402 19.0101 25.4668C19.2712 25.3063 19.5456 25.3971 19.8141 25.4849C19.9762 25.5379 20.1379 25.5926 20.2998 25.6465L20.3165 25.6519C20.4372 25.6908 20.5784 25.7247 20.6324 25.8527C20.6538 25.9034 20.6571 25.956 20.6471 26.007C21.7937 25.7151 23.0671 25.8492 24.186 26.1918C24.2289 26.205 24.2718 26.2403 24.2809 26.2867C24.4091 26.9448 24.4661 27.6196 24.4081 28.2889C24.3581 28.8666 24.2302 29.4327 23.9892 29.9616L23.9755 29.9915C23.749 30.4816 23.3901 31.0858 22.8419 31.2395C22.5109 31.3322 22.1448 31.2775 21.8072 31.2605C21.4791 31.244 21.1437 31.2416 20.8188 31.19C20.5293 31.144 20.2757 31.0141 20.0969 30.7786C19.9426 30.5753 19.8613 30.3297 19.7947 30.0854C19.7643 30.0951 19.734 30.1054 19.7042 30.1171C19.5785 30.1663 19.4719 30.2456 19.3756 30.3389C19.1722 30.5361 19.0144 30.7756 18.8016 30.9637C18.6089 31.1341 18.3894 31.2665 18.1539 31.3684C17.666 31.5794 17.1425 31.6637 16.6264 31.7756L16.5904 31.7834C16.2019 31.8688 15.8053 31.9735 15.4623 32.176C15.4556 32.2356 15.4285 32.2917 15.385 32.3284C15.4455 32.3853 15.4711 32.4754 15.4179 32.5598C15.2694 32.7957 15.0137 32.9299 14.7841 33.0807L14.7692 33.0906C14.5433 33.2405 14.3155 33.3874 14.0858 33.5313C13.6188 33.8239 13.1422 34.1004 12.6587 34.3648C11.8812 34.7899 11.087 35.191 10.2784 35.5548C10.3269 35.7938 10.3092 36.0402 10.3456 36.2808L10.3512 36.3151C10.3668 36.4044 10.3458 36.4791 10.2843 36.5375L10.2778 36.5434L10.2779 36.5426L10.2722 36.5479L10.2702 36.5495L10.2709 36.549C10.2638 36.5555 10.2565 36.5616 10.249 36.5667L10.2396 36.5728C10.1804 36.6088 10.1042 36.6084 10.0436 36.5767L10.0367 36.5728L10.025 36.5662C9.94496 36.5201 9.88975 36.4059 9.92296 36.3151C10.0046 36.0921 10.0354 35.8542 10.1108 35.6297L10.051 35.6564L9.97219 35.6908C9.1197 36.0598 8.17276 36.3705 7.24391 36.119C6.8335 36.0078 6.44991 35.7726 6.24457 35.3894C6.0425 35.0122 6.01394 34.5743 6.00321 34.1547C5.98997 33.6369 6.0177 33.1112 6.08593 32.5978C6.13172 32.2533 6.1871 31.9021 6.27253 31.5611C6.22859 31.5223 6.19629 31.4666 6.18776 31.3977C6.14744 31.072 6.218 30.7334 6.2612 30.4093C6.3034 30.0929 6.35002 29.7772 6.40275 29.4624C6.5092 28.8267 6.63289 28.1923 6.77689 27.5641C7.03317 26.446 7.3716 25.3477 7.77904 24.2757L7.81472 24.1823C8.19122 23.2025 8.62715 22.2436 9.23416 21.3828C9.52453 20.9709 9.83149 20.5976 10.2418 20.3008C10.6262 20.0227 11.0597 19.8225 11.5072 19.6695C11.9551 19.5164 12.4155 19.4138 12.8841 19.3499C13.3599 19.2851 13.8621 19.2454 14.306 19.05C14.2499 18.9493 14.2981 18.8132 14.3926 18.7507C14.7106 18.5404 15.0047 18.2668 15.2897 18.014ZM25.4702 27.1593C25.4835 27.1391 25.5152 27.1519 25.5093 27.1758C25.3547 27.8101 25.2095 28.4457 25.1146 29.0921C24.9435 30.2587 24.975 31.4406 24.989 32.6158L24.9897 32.6766C24.9969 33.3097 25.0069 33.9428 25.0278 34.5756C25.0383 34.8954 25.0592 35.2183 25.0479 35.5383C25.0417 35.7119 24.9954 35.8761 24.9791 36.0476C24.9647 36.1975 24.9775 36.3498 24.9847 36.5C24.9894 36.5998 24.8422 36.5956 24.8322 36.5L24.8194 36.3763C24.8028 36.2199 24.7822 36.0644 24.731 35.9146C24.6694 35.7345 24.6398 35.5576 24.6184 35.3685C24.5857 35.0787 24.5712 34.7859 24.5585 34.4941L24.5499 34.2923C24.4971 33.0726 24.499 31.8473 24.5844 30.629L24.5906 30.542C24.6752 29.3904 24.8219 28.1461 25.4702 27.1593ZM22.1732 19.9011C22.1328 19.8845 22.1469 19.8233 22.1917 19.834L22.273 19.8534C22.8692 19.9963 23.4545 20.1512 24.011 20.4171C24.5678 20.6833 25.0392 21.0805 25.4138 21.5691C26.1419 22.5187 26.4445 23.6728 26.6834 24.8258C26.9489 26.107 27.1906 27.3929 27.4583 28.6737L27.5081 28.9122C27.7558 30.1052 27.9898 31.2987 28.1621 32.5058L28.1745 32.5933C28.3483 33.8346 28.4529 35.1188 28.2632 36.3632C28.2257 36.6095 27.8164 36.5481 27.8324 36.3049C27.8786 35.6017 27.9117 34.9021 27.8797 34.1974C27.8477 33.4924 27.7817 32.7906 27.6832 32.0918C27.6003 31.5038 27.4768 30.9231 27.3675 30.3397L27.3504 30.2475C27.2588 29.7514 27.1645 29.2557 27.0703 28.76L26.9296 28.0178C26.7187 26.9064 26.5037 25.7941 26.2608 24.6898L26.2464 24.6248C26.0086 23.5623 25.6581 22.4494 24.9449 21.6057C24.2212 20.7495 23.1851 20.3182 22.1732 19.9011ZM19.5434 31.1705C19.5608 31.1317 19.6217 31.136 19.6404 31.1705C19.7138 31.306 19.7219 31.4788 19.7358 31.6317L19.7372 31.6475C19.7549 31.8341 19.7705 32.0213 19.78 32.2085C19.7982 32.5637 19.8068 32.9185 19.8057 33.2742C19.8046 33.6387 19.7972 34.0028 19.7776 34.3668L19.7723 34.4644C19.7544 34.7807 19.7243 35.1335 19.5741 35.41C19.5196 35.5106 19.3711 35.481 19.3395 35.3793C19.2359 35.0464 19.2891 34.6518 19.3157 34.3108L19.3363 34.0448C19.3567 33.7787 19.3762 33.5126 19.3917 33.2462C19.4128 32.8817 19.4303 32.517 19.4471 32.1524C19.4526 32.0339 19.4585 31.9155 19.4647 31.797L19.4743 31.6194C19.4825 31.4709 19.4818 31.3079 19.5434 31.1705ZM7.89799 31.6423L7.94384 31.598C8.08459 31.4601 8.26246 31.2478 8.47053 31.2609C8.5535 31.2662 8.60637 31.3351 8.58917 31.4168C8.55242 31.5915 8.3744 31.6822 8.24626 31.7888C8.10588 31.9056 7.97358 32.0304 7.84153 32.1564C7.72438 32.2682 7.61172 32.3831 7.50176 32.5016L7.46065 32.5462C7.42124 32.5893 7.14056 32.8434 7.17091 32.9093L7.17256 32.9123C7.18101 32.9249 7.16694 32.9423 7.15293 32.9379C7.03173 32.8995 7.03929 32.7955 7.08511 32.6902C7.17316 32.4878 7.32735 32.3005 7.46199 32.1276C7.59627 31.9552 7.74161 31.7946 7.89799 31.6423ZM19.9826 26.5658C19.8889 26.3441 19.5436 26.3487 19.3476 26.362C18.854 26.3954 18.3199 26.5204 17.8807 26.7513C17.4254 26.9907 17.1187 27.3743 16.8442 27.7985L16.8314 27.8184C16.5639 28.2346 16.3063 28.7273 15.8874 29.0135C15.6741 29.1592 15.425 29.2924 15.1661 29.35C15.1484 29.3813 15.1196 29.4061 15.0818 29.4151L15.0643 29.4191C14.9905 29.4354 14.876 29.4534 14.7771 29.4426C14.7777 29.491 14.7772 29.5391 14.7785 29.585C14.7819 29.7165 14.7834 29.8486 14.7834 29.9802C14.7835 30.256 14.7687 30.5322 14.7802 30.808C14.7904 31.0518 14.8248 31.3066 14.9417 31.5246C15.0275 31.6845 15.1408 31.7904 15.2775 31.8914C15.6138 31.6863 15.994 31.5613 16.38 31.4672C16.8467 31.3535 17.3246 31.2777 17.7807 31.1235C18.0002 31.0493 18.2113 30.9521 18.4025 30.8202C18.6055 30.6801 18.7605 30.4906 18.92 30.3052L18.9449 30.2764C19.1077 30.0896 19.2853 29.9108 19.5153 29.8095C19.7134 29.7222 19.9745 29.7067 20.1477 29.5716C20.2383 29.501 20.2459 29.3985 20.2554 29.2935C20.1445 29.3094 20.027 29.2839 19.9165 29.2709L19.8592 29.2642C19.7547 29.2518 19.6525 29.2381 19.5496 29.2115C19.5305 29.2065 19.5305 29.1777 19.5496 29.1728C19.6712 29.1413 19.7918 29.1279 19.9165 29.1133L19.9458 29.1096C20.0586 29.0948 20.1772 29.0725 20.2879 29.0973C20.3077 29.0217 20.3364 28.9495 20.3766 28.8772C20.4331 28.7756 20.5399 28.6604 20.5544 28.5418C20.5587 28.5063 20.5504 28.4645 20.5338 28.4332L20.528 28.4225C20.521 28.4099 20.5127 28.3972 20.5005 28.3894C20.4992 28.3909 20.4963 28.3927 20.4901 28.3947C20.405 28.4215 20.3307 28.3798 20.2912 28.3155C20.1238 28.3363 19.9411 28.3293 19.7842 28.3362L19.6254 28.3439C19.4558 28.3517 19.2785 28.3551 19.1191 28.3208C19.0969 28.316 19.0902 28.279 19.1124 28.2694C19.3084 28.1855 19.546 28.1588 19.7558 28.1266C19.873 28.1086 19.991 28.0948 20.1085 28.079C20.1867 28.0684 20.2697 28.051 20.3508 28.0468C20.554 27.7935 20.4445 27.3941 20.1617 27.285C20.0587 27.3303 19.966 27.304 19.8535 27.2943C19.7411 27.2846 19.6285 27.2781 19.5156 27.2786C19.2896 27.2796 19.05 27.3391 18.8261 27.3135C18.7897 27.3093 18.7559 27.2608 18.7921 27.2312C18.9635 27.0912 19.2091 27.0456 19.4266 27.0158L19.4717 27.0097C19.5446 27.0002 19.6333 26.9862 19.7253 26.9779C19.7461 26.9373 19.7834 26.9066 19.8394 26.8989C19.8561 26.8967 19.8729 26.8953 19.8896 26.8939L19.8893 26.8922C20.026 26.8857 20.0201 26.6545 19.9826 26.5658ZM10.622 30.8904C10.6196 30.8941 10.617 30.8977 10.6142 30.9011L10.6098 30.9061L10.6323 30.897L10.622 30.8904ZM22.3686 26.0703C21.7931 26.0084 21.2167 26.0215 20.6395 26.0381C20.5934 26.1892 20.4327 26.3181 20.277 26.3229C20.3989 26.5087 20.4115 26.7601 20.326 26.9572C20.5075 27.0295 20.6639 27.1594 20.7589 27.3445C20.8906 27.6011 20.8733 27.8865 20.7432 28.1236C20.8543 28.2243 20.9198 28.3877 20.9133 28.5418C20.9059 28.7136 20.8036 28.8603 20.7186 29.0025C20.6268 29.1563 20.6237 29.2918 20.5955 29.464C20.5542 29.7162 20.3843 29.8691 20.1657 29.9646L20.1774 30.0103C20.2337 30.2299 20.3038 30.4616 20.4649 30.6221C20.6721 30.8287 20.9935 30.8267 21.2673 30.8398L21.2805 30.8405C21.5312 30.853 21.7817 30.8677 22.0323 30.8819L22.2203 30.8925C22.5088 30.9083 22.7859 30.9102 23.0214 30.7193C23.4059 30.4077 23.6695 29.8919 23.8364 29.4354C24.1866 28.477 24.1908 27.4253 24.0301 26.4272C23.4909 26.2533 22.9316 26.1309 22.3686 26.0703ZM17.5826 27.6603L17.5868 27.6606C17.7053 27.6741 17.7867 27.7702 17.8157 27.8841C17.8578 28.0497 17.8371 28.1994 17.9385 28.3489C18.0427 28.5026 18.1068 28.6256 18.1219 28.8155C18.1281 28.8937 18.1253 28.9716 18.1427 29.0481L18.1553 29.1017C18.1686 29.1588 18.1796 29.2138 18.1729 29.2752C18.1669 29.3311 18.1396 29.3747 18.0836 29.3926C17.9009 29.4511 17.7598 29.3164 17.7126 29.146C17.6719 28.9988 17.7263 28.8234 17.6688 28.6851C17.6369 28.6085 17.5781 28.5444 17.5449 28.4673C17.512 28.3908 17.4955 28.311 17.4902 28.2278C17.4802 28.0707 17.6191 27.8818 17.5416 27.7394C17.5251 27.709 17.5438 27.6593 17.5826 27.6603ZM15.1558 26.0381C15.2795 26.013 15.4199 25.9553 15.5419 26.0033C15.6046 26.0279 15.6356 26.1045 15.5826 26.1577C15.4906 26.25 15.3569 26.2551 15.233 26.2769L15.2221 26.2788C15.0756 26.306 14.9288 26.3317 14.7818 26.3561C14.5053 26.4019 14.2282 26.4425 13.95 26.4769C13.6644 26.5123 13.3779 26.5438 13.091 26.5675L12.98 26.5766C12.7377 26.596 12.4855 26.6106 12.2478 26.5735C12.2132 26.5681 12.2188 26.5177 12.2478 26.5089C12.5082 26.43 12.794 26.4088 13.0632 26.3755C13.3495 26.3399 13.6354 26.3024 13.9204 26.2578C14.205 26.2133 14.4893 26.1656 14.7725 26.1128C14.9004 26.089 15.0282 26.0641 15.1558 26.0381ZM19.6198 25.7848C19.5113 25.7463 19.3918 25.6893 19.2742 25.7084C19.0713 25.7413 18.8908 25.9391 18.7302 26.0694L18.8108 26.0537C19.2234 25.9744 19.7697 25.8889 20.116 26.1514C20.1169 26.1499 20.1176 26.1484 20.1186 26.1469C20.1466 26.1044 20.179 26.0712 20.2143 26.0349C20.2177 26.0317 20.221 26.0284 20.2242 26.025L20.2432 26.0047L20.1996 25.9896C20.1062 25.9565 19.9955 25.9138 19.978 25.9076L19.9768 25.9072C19.8577 25.8668 19.7384 25.8269 19.6198 25.7848ZM16.2301 17.1292C16.2132 16.9106 16.553 16.9124 16.5698 17.1292C16.6066 17.6024 16.5002 18.0712 16.2712 18.486C16.2695 18.4891 16.2676 18.4918 16.2659 18.4946C16.4091 18.5692 16.554 18.6408 16.702 18.7048C16.8915 18.7866 17.0845 18.8611 17.2809 18.9244C17.4586 18.9816 17.6775 19.0042 17.8269 19.1233C18.142 19.3744 18.0236 19.8955 17.963 20.2332L17.9535 20.2866C17.9234 20.4604 17.9015 20.6387 17.9748 20.8055C18.0529 20.9837 18.211 21.1159 18.3521 21.2434L18.3805 21.2692C18.5055 21.3831 18.6483 21.5216 18.7399 21.676C18.8236 21.5029 18.9376 21.3614 19.0582 21.2022C19.1442 21.0885 19.083 21.051 19.0212 20.94C18.9617 20.8331 18.9326 20.7192 18.9512 20.5973C18.9856 20.3721 19.1653 20.2095 19.3443 20.0873C19.5556 19.943 19.7915 19.8361 20.01 19.7019C20.4589 19.4262 20.8961 19.111 21.29 18.7609C21.3009 18.7512 21.3197 18.7639 21.311 18.7771C20.9999 19.2508 20.635 19.6601 20.1866 20.0076C20.0048 20.1485 19.8138 20.2654 19.6216 20.3882L19.5663 20.4237C19.4891 20.4738 19.3928 20.5407 19.3579 20.6259C19.3228 20.7116 19.3977 20.7763 19.438 20.8473C19.566 21.0728 19.5042 21.2831 19.3525 21.4743L19.3454 21.4831C19.1946 21.6692 19.0803 21.8422 19.0256 22.0799C18.9081 22.5904 19.0717 23.1222 19.243 23.6015L19.2498 23.6204C19.3424 23.8788 19.4409 24.1352 19.5214 24.3977L19.5435 24.4703C19.6165 24.7118 19.6762 24.95 19.5944 25.1983C19.5665 25.2827 19.4515 25.3027 19.4037 25.2232C19.2351 24.9429 19.1931 24.6057 19.0874 24.2975C18.9844 23.9972 18.8661 23.7023 18.7666 23.4007C18.6385 23.0124 18.5528 22.5945 18.5993 22.1872C18.5979 22.1849 18.5964 22.1827 18.5953 22.1801L18.5627 22.1087C18.4737 21.9154 18.3878 21.7465 18.2261 21.5924C18.0574 21.4317 17.8743 21.2894 17.7416 21.0948C17.4533 20.6721 17.6316 20.2018 17.6664 19.7396L17.6704 19.683C17.6767 19.587 17.6802 19.4566 17.6176 19.3901C17.5471 19.3154 17.3819 19.2963 17.2885 19.2632C17.0469 19.1776 16.8089 19.0779 16.5821 18.9582C16.3663 18.8443 16.1573 18.7184 15.9626 18.5709L15.864 18.4966C15.7083 18.379 15.5469 18.2507 15.4426 18.0906C15.4305 18.0722 15.451 18.0425 15.4728 18.0513C15.6469 18.1221 15.8061 18.2346 15.969 18.3325C15.9715 18.3265 15.9745 18.3205 15.9778 18.3144C16.1794 17.9492 16.2624 17.5446 16.2301 17.1292ZM21.7935 19.6314C21.8629 19.441 22.1791 19.4557 22.1665 19.682C22.1568 19.8558 22.0831 20.0128 22.0157 20.1706L22.0085 20.1875C21.9389 20.352 21.8584 20.5064 21.7622 20.6572C21.5784 20.9453 21.3631 21.2128 21.1331 21.4651C20.9246 21.6939 20.6509 21.8339 20.3355 21.8106C20.2026 21.8008 20.0685 21.767 19.9521 21.7005C19.8138 21.6216 19.6636 21.3846 19.4871 21.442C19.4701 21.4475 19.4541 21.4225 19.4689 21.4107C19.6726 21.2465 19.9038 21.5011 20.0988 21.5624C20.3927 21.6548 20.6942 21.5526 20.8834 21.3149C21.0808 21.0666 21.2626 20.7886 21.4285 20.5183C21.5128 20.381 21.5897 20.2386 21.6562 20.0918C21.7232 19.9436 21.7384 19.7825 21.7935 19.6314ZM21.3198 18.4593C21.3112 18.433 21.3439 18.408 21.367 18.423C21.5008 18.5102 21.6168 18.6254 21.7403 18.7265C21.8772 18.8385 22.0152 18.9483 22.1553 19.0564C22.3596 19.214 22.1227 19.5042 21.9429 19.332C21.6968 19.0965 21.4273 18.7885 21.3198 18.4593ZM20.585 17.5374C20.6393 17.3275 20.9609 17.4141 20.9141 17.6215L20.9125 17.6278C20.8238 17.9704 20.9502 18.3192 21.2201 18.5414L21.23 18.5494C21.4007 18.6862 21.1588 18.9253 20.9898 18.7898C20.6207 18.4942 20.4672 17.992 20.585 17.5374Z" fill="black"/>
<path fill-rule="evenodd" clip-rule="evenodd" d="M23.3782 10.8561C23.2723 10.0102 22.9396 9.112 22.5897 8.32333C21.803 6.65587 20.0018 6.42629 18.3871 6.0825C16.7938 5.85031 15.1065 5.64065 13.5372 6.10391C12.6549 6.32025 12.3103 7.37198 12.4496 8.20194C12.529 8.71912 12.7642 9.2086 12.9648 9.68791C13.3634 10.6722 13.6163 11.726 13.6167 12.7918C13.5894 13.4882 13.4912 14.2831 14.2908 14.5781C15.0516 14.9569 15.1159 15.9835 16.0686 16.566C16.4539 17.3471 17.5033 17.4158 18.2586 17.597C18.7359 17.6884 19.2187 17.7557 19.7028 17.7992C21.1045 17.979 22.2258 17.5725 22.9595 16.3226C23.4505 15.562 23.8162 14.6838 23.7259 13.7619C23.6359 12.7912 23.486 11.8255 23.3782 10.8561Z" fill="white"/>
<path fill-rule="evenodd" clip-rule="evenodd" d="M18.3993 4.05594C18.4793 3.96518 18.6026 3.99631 18.6774 4.06808C18.7261 4.08244 18.7733 4.1038 18.8178 4.13208C18.9186 4.11914 19.0242 4.11914 19.1229 4.12277C19.1469 4.10931 19.1726 4.09735 19.2006 4.08707C19.4003 4.01398 19.5771 4.05111 19.723 4.14896C19.7933 4.08241 19.882 4.04066 19.9953 4.04697C20.0964 4.05262 20.1685 4.10026 20.2303 4.16301C20.2919 4.0741 20.3915 4.01067 20.5155 4.00185C20.6889 3.98951 20.8556 4.05911 20.9938 4.16686C21.0742 4.07444 21.184 4.02132 21.3063 4.02081C21.3867 4.00619 21.4716 4.01196 21.5484 4.03515C21.6598 4.06882 21.7576 4.13191 21.8355 4.21378C21.9587 4.09566 22.1095 4.01067 22.2835 4.02307C22.5086 4.03934 22.6952 4.20502 22.7819 4.40893C22.9343 4.47002 23.075 4.55715 23.1925 4.68139C23.1988 4.68793 23.2048 4.69478 23.2111 4.70166C23.2744 4.72505 23.334 4.75821 23.3865 4.80188C23.5529 4.94042 23.59 5.14091 23.5349 5.33737C23.5426 5.36881 23.5492 5.4008 23.5552 5.43275C23.7109 5.45646 23.8525 5.54645 23.9329 5.69296C24.0431 5.89402 24.0214 6.15902 23.9021 6.35097C23.8508 6.43353 23.7858 6.5031 23.7127 6.56393C23.7953 6.75185 23.7557 6.9761 23.6224 7.12809C23.5899 7.1805 23.5501 7.22779 23.5052 7.2706C23.5547 7.46489 23.4667 7.66535 23.2909 7.76916L23.2759 7.80683C23.2733 7.81309 23.2708 7.81931 23.2681 7.82548C23.2662 7.83348 23.2638 7.84122 23.2614 7.84902C23.2572 7.91796 23.2345 7.98562 23.1895 8.04936C23.0973 8.18 22.9831 8.26519 22.9225 8.41769L22.9164 8.43371C22.8904 8.50588 22.8063 8.5568 22.7346 8.53453C23.1325 9.35249 23.3412 10.2627 23.4844 11.1546C23.5558 11.5996 23.6109 12.0461 23.6556 12.4944L23.6995 12.9407C23.738 13.3375 23.7724 13.7356 23.7726 14.1336C23.7731 15.0341 23.5158 15.9003 22.9634 16.6169C22.441 17.2943 21.7017 17.7852 20.8666 17.9786C20.0043 18.1779 18.9928 18.0994 18.2196 17.643C17.9916 17.5088 18.1914 17.1861 18.4233 17.294C18.8624 17.4985 19.3087 17.6505 19.7955 17.6844C20.2699 17.7178 20.7456 17.6584 21.1955 17.5031C21.9399 17.2458 22.5734 16.7069 22.9805 16.0357C23.1811 15.705 23.3263 15.346 23.4037 14.9667C23.4999 14.494 23.4854 14.0053 23.45 13.5266L23.4476 13.4939C23.3777 12.5714 23.2855 11.6433 23.1366 10.73C23.0049 9.92234 22.8025 9.13107 22.5397 8.35732C22.4367 8.26661 22.3216 8.19156 22.1984 8.13455C21.296 8.09683 20.3919 8.10785 19.4907 8.17017C18.7221 8.22366 17.9572 8.31416 17.1981 8.44607L17.1168 8.46036C16.9488 8.49032 16.7622 8.50745 16.6038 8.57517C16.468 8.63343 16.4129 8.74538 16.3787 8.88301C16.2925 9.23114 16.2794 9.61215 16.2649 9.96915C16.2506 10.3181 16.2828 10.67 16.2549 11.0178C16.2312 11.3088 16.1567 11.6067 15.9413 11.8172C15.8286 11.9274 15.6899 11.9877 15.5598 12.0714C15.4756 12.1254 15.44 12.181 15.4508 12.281C15.4742 12.4998 15.6503 12.7754 15.4525 12.9627C15.4177 12.9955 15.3575 12.9998 15.3233 12.9627C15.2417 12.8739 15.129 12.8062 15.0323 12.7345C14.9917 12.7048 15.0254 12.6472 15.0713 12.6677C15.1318 12.6948 15.1935 12.7268 15.2565 12.7548C15.1173 12.64 14.9193 12.5837 14.7543 12.5503C14.6713 12.5337 14.584 12.5289 14.4976 12.5366C14.4336 12.5672 14.3683 12.5955 14.303 12.6231C14.2199 12.658 14.1361 12.6897 14.0516 12.7197C13.7586 12.9587 13.6188 13.3474 13.6798 13.7276C13.7132 13.9374 13.8099 14.1657 13.9922 14.2882C14.2082 14.4333 14.4976 14.371 14.731 14.4787C14.9495 14.5794 15.0825 14.7831 15.182 14.9939L15.2236 15.0816C15.316 15.2759 15.411 15.465 15.5373 15.6419C15.6834 15.8466 15.8623 16.0305 16.0574 16.1885C16.1521 16.265 16.253 16.3337 16.3573 16.3963L16.3858 16.4133C16.4914 16.4752 16.567 16.5343 16.5741 16.6654C16.5764 16.7111 16.5476 16.7528 16.5105 16.7765C16.3507 16.8779 16.1918 16.7511 16.0588 16.6626C15.9153 16.5672 15.7781 16.4598 15.6511 16.3427C15.4097 16.1205 15.2009 15.8567 15.0402 15.5702C14.9178 15.352 14.8482 15.045 14.6548 14.8759C14.5366 14.7728 14.3697 14.772 14.2222 14.7531C14.085 14.7354 13.9552 14.7069 13.833 14.6392C13.3363 14.363 13.1959 13.6944 13.3137 13.1778C13.3337 13.0907 13.3617 13.0058 13.3962 12.9242C13.2113 12.955 13.0036 12.7637 13.0786 12.5706C13.0843 12.556 13.0909 12.5423 13.0972 12.5283C12.9754 12.4481 12.8792 12.3264 12.8335 12.1673C12.8102 12.0851 12.8067 12.002 12.819 11.9217C12.7599 11.8821 12.7111 11.8275 12.6798 11.7604C12.5816 11.7149 12.4946 11.647 12.4427 11.5499C12.3708 11.4159 12.3799 11.2926 12.4347 11.1815C12.427 11.1675 12.4195 11.1532 12.4124 11.1386C12.2113 11.011 12.0709 10.7911 12.0869 10.5472C12.092 10.4663 12.112 10.3935 12.1428 10.3279C12.1402 10.3196 12.1376 10.311 12.1354 10.3027C11.967 10.217 11.8278 10.0762 11.7781 9.88832C11.7285 9.69923 11.787 9.51074 11.904 9.36566C11.7328 9.24031 11.6298 9.06524 11.6923 8.80047C11.7176 8.69283 11.7687 8.59484 11.8378 8.51231C11.8375 8.50976 11.8369 8.50719 11.8363 8.5046L11.8203 8.49216C11.609 8.32523 11.4875 8.1125 11.6172 7.85087C11.6754 7.73324 11.7584 7.65124 11.856 7.59727L11.8609 7.58184C11.791 7.43191 11.7673 7.26541 11.8155 7.09034C11.8549 6.94614 11.9482 6.8313 12.0675 6.75508C12.0595 6.69051 12.0606 6.62171 12.0734 6.54714C12.0948 6.42122 12.1573 6.31127 12.2486 6.2333C12.2521 6.21671 12.2563 6.20046 12.2612 6.18415C12.292 6.08451 12.3496 5.97627 12.4164 5.89599C12.4715 5.82944 12.5331 5.80517 12.6084 5.8026C12.6039 5.74122 12.607 5.67894 12.6196 5.61582C12.6581 5.42107 12.7819 5.23798 12.9654 5.15487C13.0407 5.12089 13.12 5.11092 13.1965 5.11917C13.2615 4.98209 13.3885 4.88273 13.5446 4.86131C13.6053 4.85274 13.6618 4.85329 13.7138 4.86102C13.7432 4.84729 13.7737 4.83504 13.8056 4.82387C13.8268 4.81644 13.8482 4.80959 13.8696 4.80276C13.9417 4.71309 14.0368 4.64138 14.1478 4.59828C14.2759 4.5483 14.4063 4.55341 14.5218 4.59539L14.5586 4.58768C14.6163 4.48773 14.7081 4.41033 14.8494 4.3752C15.0097 4.3355 15.1743 4.39091 15.3005 4.49175C15.301 4.49175 15.3016 4.49175 15.3025 4.49144C15.3684 4.34379 15.4811 4.24097 15.6702 4.24811C15.7881 4.25268 15.8945 4.31126 15.9767 4.39465C16.0223 4.38891 16.068 4.38377 16.1139 4.37866C16.1624 4.3218 16.2163 4.2687 16.276 4.22101C16.3736 4.14273 16.5005 4.14904 16.5724 4.25925C16.5881 4.28324 16.6027 4.30752 16.6172 4.33179L16.6831 4.32722C16.7607 4.22241 16.8666 4.15158 17.0115 4.1459C17.1445 4.14044 17.2392 4.20559 17.3114 4.29666C17.3702 4.29524 17.4293 4.29412 17.4883 4.29324C17.5571 4.21356 17.6381 4.1433 17.7306 4.08504C17.8013 4.04049 17.9058 4.05565 17.9631 4.11506C18.0018 4.15544 18.0379 4.19759 18.0714 4.24123C18.1579 4.14424 18.2746 4.08036 18.3993 4.05594ZM14.2 13.1249C14.3332 13.049 14.5124 13.1312 14.6414 13.1958C14.7986 13.2743 14.9546 13.3928 15.0508 13.5413C15.1818 13.7435 14.8739 13.9069 14.7361 13.7255C14.6513 13.6139 14.5837 13.5014 14.481 13.4037C14.3871 13.314 14.251 13.254 14.1971 13.1358C14.1951 13.1318 14.1957 13.1272 14.2 13.1249ZM14.2936 8.217L14.2961 8.20986C14.334 8.10611 14.1686 8.06138 14.131 8.16428C14.0741 8.32024 14.1397 8.4898 14.2936 8.55714C14.3363 8.57582 14.385 8.56934 14.4107 8.52641C14.4323 8.49029 14.4223 8.42768 14.38 8.40921C14.2934 8.3713 14.2644 8.3044 14.2936 8.217ZM12.8689 7.92687C12.9517 7.85376 12.8302 7.73292 12.7478 7.80572C12.671 7.87363 12.614 7.96588 12.6288 8.07198C12.6439 8.1801 12.7253 8.25644 12.8145 8.31039C12.909 8.3676 12.9951 8.21949 12.9009 8.16243L12.8903 8.15594C12.8507 8.13135 12.8044 8.09754 12.7977 8.04916C12.7906 7.99775 12.8341 7.95763 12.8689 7.92687ZM13.3388 6.63679L13.3446 6.63247C13.4335 6.56896 13.3481 6.42028 13.2582 6.48451C13.1757 6.54343 13.1096 6.61997 13.1026 6.72552C13.0959 6.82811 13.148 6.91704 13.2162 6.98921C13.2921 7.06949 13.413 6.94817 13.3373 6.86806C13.2635 6.78998 13.2491 6.70479 13.3388 6.63679Z" fill="black"/>
<path fill-rule="evenodd" clip-rule="evenodd" d="M21.035 15.291C21.0788 15.2148 21.1796 15.1443 21.2718 15.1551C21.6849 15.2036 21.6842 15.7049 21.5247 15.9976C21.3832 16.2571 21.0905 16.4095 20.7976 16.3872C20.4898 16.3638 20.2275 16.1827 20.1121 15.8945C20.0358 15.7039 20.0005 15.3519 20.2036 15.2238C20.2073 15.2214 20.2136 15.222 20.2166 15.2255C20.3139 15.3388 20.3177 15.509 20.403 15.6352C20.4822 15.7526 20.6054 15.8495 20.7496 15.8645C20.8574 15.8757 20.9664 15.8368 21.0085 15.74C21.0313 15.6876 21.0287 15.6592 21.0201 15.6231L21.0123 15.5918C20.9854 15.4821 20.9732 15.3986 21.035 15.291ZM21.1455 13.0924C21.3609 13.2235 21.6892 13.5291 21.4574 13.8541C21.1846 14.1407 20.7918 13.8121 20.5982 13.6635C20.4187 13.5484 20.2171 13.8446 20.3836 13.979C21.7824 15.0156 22.35 13.1267 21.2544 12.9382C21.1338 12.9175 21.089 13.0518 21.1455 13.0924ZM18.8702 12.1935C19.0025 11.9949 19.3043 12.0241 19.3772 12.2598C19.4166 12.3875 19.3621 12.5022 19.365 12.6297C19.3673 12.7374 19.3603 12.8574 19.3273 12.9617C19.2521 13.1995 19.0384 13.3675 18.7856 13.3606C18.5336 13.3536 18.3116 13.194 18.2061 12.9691C18.1002 12.7434 18.1226 12.5098 18.1999 12.2803C18.2036 12.2693 18.2181 12.264 18.2268 12.2732C18.3182 12.3705 18.3851 12.4731 18.4543 12.582L18.5252 12.6936C18.5795 12.7776 18.6583 12.8849 18.7595 12.8782L18.7747 12.8767C18.8028 12.8743 18.7985 12.8798 18.8202 12.8415C18.8303 12.8237 18.8284 12.7907 18.8333 12.7697L18.835 12.7626L18.8341 12.7588C18.8319 12.7487 18.8298 12.7295 18.8281 12.6963L18.8277 12.689C18.8204 12.5337 18.7765 12.3342 18.8702 12.1935ZM22.2225 12.3257C22.1988 12.0717 22.5556 12.0153 22.6742 12.2032C22.7361 12.3012 22.7541 12.4244 22.7678 12.541L22.7742 12.5964C22.7882 12.7162 22.7938 12.8408 22.7418 12.9526C22.66 13.1286 22.482 13.2216 22.29 13.2069C22.1067 13.1928 21.9395 13.0864 21.8513 12.9249C21.7727 12.7808 21.6945 12.4994 21.79 12.3491C21.7958 12.34 21.8073 12.3388 21.8152 12.3459C21.9054 12.426 21.9201 12.5723 21.9738 12.6767C22.0291 12.7844 22.113 12.8894 22.2402 12.9058C22.3618 12.9214 22.4083 12.8549 22.3773 12.7388C22.3372 12.5889 22.2376 12.487 22.2225 12.3257ZM18.9666 10.6834L19.0249 10.661C19.2248 10.5854 19.4993 10.498 19.6618 10.6607C19.7621 10.7611 19.7812 10.9089 19.7096 11.0313C19.6229 11.1796 19.4674 11.1833 19.3172 11.2051C19.1463 11.23 18.9726 11.2772 18.8136 11.3445C18.6344 11.4204 18.4682 11.515 18.3053 11.6206C18.1504 11.721 17.9962 11.8851 17.8109 11.916C17.8033 11.9173 17.7947 11.914 17.7927 11.9057C17.7507 11.7244 17.8676 11.5459 17.972 11.4044C18.0983 11.2331 18.2513 11.0925 18.4223 10.9665C18.5874 10.8448 18.776 10.7568 18.9666 10.6834ZM22.5978 11.3281L22.6156 11.325C22.7369 11.3048 22.8467 11.3095 22.9381 11.4056C23.0078 11.4789 23.0347 11.5739 23.0014 11.6708C22.9708 11.7602 22.9022 11.8511 22.8026 11.8698C22.4665 11.9331 22.0943 11.9227 21.7565 11.8747C21.602 11.8528 21.4461 11.826 21.2955 11.7836L21.2263 11.7635C21.1006 11.7276 20.9568 11.6901 20.8655 11.5976C20.8327 11.5643 20.8516 11.5167 20.8908 11.5013C21.0501 11.4389 21.2684 11.4721 21.4382 11.4672C21.6358 11.4616 21.8337 11.4468 22.0303 11.4263C22.2224 11.4064 22.4083 11.3629 22.5978 11.3281Z" fill="black"/>
<path fill-rule="evenodd" clip-rule="evenodd" d="M18.6035 16.029C18.8345 15.4873 19.3387 15.0892 19.9192 14.9437C20.3454 14.837 20.7928 14.8404 21.2273 14.8828C21.455 14.9048 21.6992 14.9228 21.9138 15.0074C22.097 15.0797 22.2463 15.2164 22.3586 15.3768C22.4922 15.5669 22.5831 15.7845 22.6469 16.0075C22.656 16.0392 22.6645 16.0711 22.6725 16.1032C22.6447 16.2715 22.5858 16.4147 22.4301 16.5205C22.2782 16.6238 22.0969 16.666 21.9162 16.681C21.8984 16.6725 21.8813 16.6638 21.8656 16.6548C21.584 16.4934 21.3858 16.1121 21.0304 16.1637C20.7132 16.2098 20.5043 16.6093 20.3157 16.8435C19.7102 16.9142 19.1051 16.732 18.6125 16.3855C18.5875 16.2669 18.586 16.1472 18.6035 16.029ZM23.084 15.6181C23.0356 15.482 22.9746 15.3503 22.9022 15.2261C22.6632 14.8156 22.2962 14.4885 21.8605 14.3015C20.8298 13.8598 19.4963 14.1712 18.664 14.8956C18.3797 15.1433 18.0922 15.5072 18.0052 15.8986C17.9793 15.9038 17.9548 15.9173 17.9346 15.9364C17.3332 15.5574 16.714 15.1928 16.2294 14.6675C15.8775 14.2858 15.6327 13.8341 15.4828 13.3378C15.4706 13.2969 15.4048 13.3029 15.4068 13.3481C15.4073 13.3587 15.4079 13.3692 15.4085 13.3798C15.4022 13.3603 15.3726 13.3704 15.3703 13.3892C15.2896 13.9922 15.1888 14.6315 15.2817 15.2376C15.3372 15.5992 15.5014 15.864 15.7208 16.1499C15.9558 16.4563 16.222 16.7414 16.4941 17.0147C16.6668 17.1882 16.8472 17.3884 17.0586 17.5156C17.3045 17.6634 17.5835 17.7758 17.8459 17.8898C18.1129 18.0062 18.3839 18.1137 18.66 18.2069C19.2119 18.3939 19.7824 18.5231 20.3628 18.5797C20.8276 18.6249 21.3587 18.6741 21.8041 18.4991C22.1454 18.365 22.421 18.1226 22.6395 17.8309C22.8775 17.5133 23.0655 17.1515 23.1695 16.77C23.2776 16.3737 23.1068 15.682 23.084 15.6181Z" fill="black"/>
</g>
</svg>
