<svg width="35" height="35" viewBox="0 0 35 35" fill="none" xmlns="http://www.w3.org/2000/svg">
<circle cx="17.5" cy="17.5" r="17" fill="#D9D9D9" stroke="#247C53"/>
<mask id="mask0_122_408" style="mask-type:alpha" maskUnits="userSpaceOnUse" x="0" y="0" width="35" height="35">
<circle cx="17.5" cy="17.5" r="17.5" fill="#D9D9D9"/>
</mask>
<g mask="url(#mask0_122_408)">
<path fill-rule="evenodd" clip-rule="evenodd" d="M8.23732 42.9319C8.62368 42.9558 9.01002 42.9746 9.39633 42.989C14.4483 43.1774 19.4962 42.6012 24.545 42.4752C26.3032 42.4289 28.0525 42.452 29.8062 42.5932C29.978 42.607 30.1745 42.4221 30.1534 42.2459C29.8294 39.448 29.424 36.6576 29.214 33.8483C29.2138 33.6997 29.233 33.5514 29.284 33.4114C29.2937 33.4004 29.3435 33.2773 29.3879 33.2697C29.3734 33.2804 29.4391 33.2616 29.3973 33.2648C29.6508 33.2233 29.8995 32.9495 29.7155 32.6875C27.82 29.7811 25.2324 27.1283 24.3999 23.6763C24.2032 22.743 23.4928 22.6853 22.7359 22.3002C22.4998 22.1598 21.9224 21.7706 21.8284 21.5C21.6039 20.5248 21.9992 19.5695 20.8443 19.1749C20.0819 18.9634 18.7344 18.7845 17.963 19.0075C17.0221 19.3208 17.0925 20.3816 16.5467 21.1114C16.2644 21.5335 15.7832 22.1114 15.3388 22.1761C15.1235 22.2075 14.9648 21.7717 14.7498 21.8017C11.3979 22.616 6.83127 28.1716 5.39066 31.2469C5.06601 32.2148 6.11302 31.9228 6.0487 32.8956C5.9694 34.7412 5.79597 37.1039 5.89883 38.9516C5.99517 40.0241 5.92387 41.1478 6.25711 42.1799C6.16741 42.2888 6.29629 42.3989 6.40144 42.4462C6.53393 42.6716 7.83756 42.9007 8.23732 42.9319Z" fill="white"/>
<path fill-rule="evenodd" clip-rule="evenodd" d="M16.9637 19.949C17.0508 19.5568 17.6747 19.725 17.5678 20.1156C17.4023 20.7198 17.0589 21.2906 16.5741 21.6913C16.1997 22.0006 15.6895 22.2766 15.1834 22.3276C15.2308 22.3738 15.2763 22.4232 15.3241 22.4703C15.4319 22.5775 15.5465 22.677 15.6646 22.7726C15.9073 22.9689 16.1597 23.1455 16.4353 23.2933C17.5362 23.8842 18.7798 24.0205 20.0094 23.8829C20.5929 23.8177 21.1852 23.707 21.7339 23.4935C21.9882 23.3948 22.2354 23.2649 22.4536 23.1009L22.5107 23.0581C22.6254 22.9714 22.7785 22.8491 22.8502 22.7154C22.6321 22.7645 22.3561 22.532 22.2047 22.3968C22.0392 22.2482 21.8997 22.0567 21.7968 21.8604C21.5951 21.4753 21.4882 20.9784 21.6574 20.5654C21.6687 20.538 21.7048 20.5425 21.708 20.5722C21.7581 21.0536 21.8878 21.505 22.2332 21.8614C22.3865 22.0193 22.5701 22.1517 22.7705 22.2437L22.7987 22.2567C22.8841 22.2962 22.974 22.3425 23.01 22.4271C23.0239 22.4255 23.0378 22.4268 23.051 22.4303C23.0629 22.4335 23.0739 22.4371 23.0846 22.441C23.0607 22.3942 23.0481 22.339 23.0503 22.2737C23.0588 22.0209 23.4057 22.0132 23.4538 22.2382C23.4451 22.2085 23.4334 22.2373 23.4554 22.2463C23.455 22.2437 23.4544 22.2408 23.4538 22.2382L23.4544 22.2406L23.4557 22.2463L23.4554 22.2463C23.4563 22.2504 23.457 22.2546 23.4575 22.2589L23.4579 22.2645L23.4576 22.2598C23.4573 22.2563 23.4569 22.2532 23.4564 22.2504L23.4557 22.2463C23.459 22.2479 23.4635 22.2489 23.4686 22.2489L23.4708 22.2497C23.4788 22.2532 23.5074 22.2665 23.5158 22.2699C23.5735 22.2912 23.6381 22.2979 23.6971 22.3163C23.8253 22.3558 23.9382 22.421 24.0164 22.532C24.0725 22.6118 24.1038 22.7032 24.1167 22.7981C24.6838 23.0709 25.2205 23.4254 25.6701 23.8642C26.6735 24.8431 27.3732 26.0684 27.9474 27.3367C28.2396 27.9824 28.5 28.6417 28.7547 29.3029L28.7949 29.4073C29.0679 30.1179 29.3094 30.8363 29.3687 31.6003C29.3742 31.6687 29.3516 31.733 29.3126 31.7862C29.3265 31.8437 29.3336 31.9012 29.3316 31.9573C29.3313 31.9661 29.3307 31.9748 29.33 31.9835C29.4217 31.9819 29.5114 32.0203 29.5966 32.1281C29.6311 32.1172 29.6686 32.1158 29.7054 32.1278C29.9297 32.1995 29.9658 32.4459 30.0081 32.6522C30.0517 32.8653 30.0707 33.0835 30.071 33.3008C30.071 33.3786 30.0265 33.4768 29.951 33.51C29.809 33.5726 29.656 33.6137 29.5091 33.6705C29.3988 33.7131 29.2881 33.7535 29.1764 33.7913C29.2384 33.8994 29.2584 34.0499 29.2919 34.1639C29.3445 34.3418 29.3868 34.5203 29.4224 34.7024C29.6631 35.9406 29.83 37.1921 30.0552 38.4329C30.1679 39.0544 30.2989 39.6717 30.4325 40.2891C30.4984 40.5926 30.5684 40.8954 30.6436 41.197C30.6836 41.3578 30.7253 41.5186 30.7682 41.6784C30.7807 41.7251 30.7933 41.7716 30.806 41.8182L30.8285 41.8996C30.8776 41.9267 30.9195 41.9677 30.9486 42.0238C31.0548 42.2292 30.9938 42.4607 30.7901 42.5763C30.5687 42.7022 30.3044 42.5834 30.1824 42.379C30.0965 42.2347 30.0685 42.0436 30.0262 41.8831C29.9784 41.7029 29.9329 41.5218 29.889 41.3407C29.5908 40.1101 29.3911 38.858 29.2406 37.6012L29.23 37.5114C29.1535 36.8644 29.0796 36.2157 29.0318 35.5658C29.0082 35.2465 28.9895 34.9271 28.9779 34.6071C28.9721 34.4425 28.9815 34.2769 28.9908 34.1125C28.995 34.0405 29.0011 33.9682 29.0034 33.8962L29.0041 33.886C29.0047 33.8787 29.0056 33.8691 29.0062 33.859L29.0069 33.8468C28.7843 33.9165 28.5583 33.9747 28.3302 34.0237C27.8447 34.1286 27.348 34.1871 26.8526 34.1574C26.9217 34.9781 27.0117 35.7969 27.1376 36.6102C27.259 37.3936 27.399 38.1752 27.5572 38.9521C27.6363 39.3424 27.7218 39.7318 27.8118 40.1199C27.8602 40.3272 27.9154 40.5331 27.959 40.7414C27.9848 40.8654 27.9929 40.969 27.9409 41.085C27.9981 41.2408 28.0489 41.3975 28.0989 41.545L28.1139 41.589C28.2023 41.8473 28.3702 42.1113 28.1949 42.3652C28.1043 42.4962 27.9564 42.5711 27.8076 42.5757C27.805 42.5772 27.8021 42.5792 27.7992 42.5808C27.7192 42.6237 27.6269 42.6322 27.5391 42.6138C27.4058 42.6399 27.2722 42.6651 27.1382 42.688C26.8074 42.7452 26.475 42.7923 26.1419 42.832C25.5077 42.9075 24.8693 42.9489 24.2313 42.9718C21.8952 43.0561 19.5566 42.9082 17.2196 42.9508C16.029 42.9724 14.8384 43.026 13.6497 43.0971C13.0565 43.1326 12.463 43.1707 11.8694 43.2001L11.6857 43.209C11.1549 43.2344 10.6238 43.2541 10.0934 43.2153C10.083 43.2146 10.075 43.2104 10.0695 43.2046C9.88648 43.184 9.70255 43.0154 9.72091 42.8207C9.79998 41.9916 9.87906 41.1625 9.95845 40.333C10.0995 38.8552 10.2418 37.3774 10.3858 35.8999L10.4066 35.6866C10.4549 35.1888 10.5011 34.6898 10.5246 34.19C10.4064 34.1816 10.2887 34.171 10.1708 34.158C8.89418 34.0182 7.67033 33.6319 6.49523 33.1245L6.44762 33.1039C6.34176 33.0577 6.22589 33.0115 6.10712 32.9621C6.10909 33.1878 6.10163 33.4138 6.10067 33.6372C6.09905 34.0082 6.10196 34.3792 6.10292 34.7498C6.10518 35.5138 6.13423 36.278 6.17232 37.0407C6.23912 38.3876 6.31755 39.7327 6.43632 41.0765C6.46634 41.4146 6.50704 41.752 6.53573 42.09C6.55287 42.2892 6.51184 42.4552 6.32952 42.5598C6.23977 42.6115 6.17038 42.5899 6.0813 42.5482C5.86377 42.4462 5.85764 42.205 5.83698 41.9951C5.8212 41.8369 5.80664 41.6787 5.79244 41.5202C5.76214 41.1821 5.73596 40.8441 5.71466 40.5054C5.63046 39.1596 5.60589 37.8152 5.66399 36.4679C5.69096 35.8377 5.7299 35.2061 5.78158 34.577L5.79373 34.4318C5.83634 33.9291 5.86377 33.4016 5.95188 32.8956C5.59654 32.7381 5.24442 32.5376 5.08111 32.2043C4.86942 31.7717 5.10209 31.4017 5.43355 31.1469C5.43032 31.104 5.43355 31.0613 5.44259 31.0226C5.5378 30.6103 5.69723 30.2028 5.85118 29.8096C6.00642 29.4144 6.1778 29.0253 6.36629 28.6446C7.1228 27.1197 8.15624 25.7262 9.38816 24.5522C10.0001 23.9692 10.6698 23.4302 11.3847 22.9782C11.739 22.7545 12.1025 22.5478 12.4788 22.3638L12.5344 22.3367C12.7964 22.2095 13.0902 22.0743 13.3815 22.0035C13.4118 21.9809 13.4425 21.9596 13.4735 21.9393C13.5881 21.863 13.7436 21.9182 13.8114 22.027C13.8444 22.0015 13.8824 21.979 13.926 21.9586L13.969 21.9389C14.2304 21.8212 14.5443 21.7111 14.8281 21.7885C15.0043 21.8366 15.1431 21.9664 15.2054 22.1317C15.3483 22.0561 15.4887 21.9783 15.6259 21.8831C15.8463 21.7307 16.0461 21.5414 16.2255 21.3429C16.5854 20.9435 16.8468 20.4757 16.9637 19.949ZM29.4504 32.5411C29.4259 32.5482 29.4001 32.5508 29.3733 32.5475C29.4217 32.5532 29.3247 32.5818 29.2981 32.5956L29.2961 32.5966C29.2477 32.6244 29.199 32.6512 29.1496 32.677C29.0344 32.7377 28.9166 32.7923 28.7968 32.8436C28.5609 32.944 28.3172 33.0212 28.0671 33.0777C27.8225 33.1329 27.5659 33.1652 27.3151 33.1703C27.1473 33.1736 26.9481 33.1659 26.7745 33.1164C26.7946 33.4209 26.8168 33.725 26.8416 34.0289L27.1846 33.9502C27.5275 33.8715 27.8701 33.7909 28.2085 33.6928C28.4625 33.6192 28.7129 33.533 28.9605 33.4399C29.0902 33.3912 29.219 33.3396 29.3462 33.284C29.4094 33.2564 29.4688 33.2235 29.5274 33.1902L29.5776 33.1617C29.5659 33.0257 29.5446 32.8924 29.5137 32.7581C29.4976 32.687 29.4701 32.6141 29.4504 32.5411ZM5.96802 31.1072C5.92445 31.2486 5.85764 31.3807 5.7053 31.4127C5.6514 31.424 5.60625 31.4178 5.56878 31.3994L5.55979 31.4176C5.43454 31.6747 5.39776 31.9462 5.68594 32.1443C5.81604 32.2337 5.95769 32.3112 6.10422 32.3806C6.36625 32.5053 6.64529 32.6056 6.90839 32.7076L6.96078 32.728C7.43135 32.9127 7.90934 33.0809 8.39475 33.2217C8.88729 33.3641 9.38848 33.4784 9.89587 33.551C10.1098 33.5814 10.3254 33.6027 10.5414 33.6166C10.5449 33.326 10.5433 33.0351 10.5423 32.7445C10.4655 32.7348 10.3893 32.7245 10.3158 32.7157C10.0917 32.6896 9.86841 32.6577 9.64636 32.6179C9.18257 32.535 8.72363 32.4203 8.27598 32.2738C7.44652 32.0016 6.67483 31.6125 5.96802 31.1072ZM15.062 22.2062C14.8736 22.0067 14.5131 22.0787 14.2855 22.1756C14.2168 22.205 14.1474 22.2347 14.0815 22.2705L14.0688 22.2777C13.9921 22.3218 13.9925 22.3481 14.0299 22.4361C14.0786 22.5521 14.1464 22.6641 14.211 22.7716C14.4873 23.233 14.851 23.6347 15.2663 23.974C16.7374 25.1751 18.8508 25.5987 20.6904 25.1964C21.5733 25.0035 22.425 24.6142 23.0749 23.9757L23.1341 23.9168C23.3962 23.6544 23.7559 23.2747 23.7307 22.8859C23.7187 22.6989 23.5661 22.6883 23.4102 22.6522C23.3463 22.6373 23.2853 22.6163 23.2324 22.5866C23.275 22.7703 23.0481 23.0434 22.9309 23.1581C22.6853 23.3986 22.3897 23.5865 22.077 23.727C21.4818 23.9947 20.8344 24.1212 20.1898 24.2013C19.4585 24.2923 18.7113 24.2843 17.9855 24.1496C17.3539 24.0324 16.7313 23.8106 16.1878 23.4651C15.9386 23.3069 15.693 23.1264 15.4852 22.9163L15.441 22.8716C15.2909 22.7195 15.1163 22.5357 15.0265 22.3361C14.9923 22.3364 14.9584 22.3354 14.9246 22.3331C14.9007 22.3319 14.8878 22.2979 14.9116 22.2853C14.9384 22.2711 14.9652 22.257 14.992 22.2431C14.9875 22.2282 14.9836 22.2137 14.9804 22.1988C14.9778 22.1862 14.991 22.1746 15.0027 22.1817C15.0188 22.1914 15.0343 22.2017 15.0495 22.2127C15.0537 22.2108 15.0578 22.2085 15.062 22.2062Z" fill="black"/>
<path fill-rule="evenodd" clip-rule="evenodd" d="M24.6392 13.0021C24.5625 12.0095 24.6813 10.969 24.2987 10.0255C23.6317 8.46008 21.7612 7.93812 20.311 7.34213C19.7301 7.17041 17.7753 7.14641 17.095 6.91912C15.5555 6.40473 15.1877 5.79183 13.9644 6.77126C13.7579 6.93857 13.6287 7.12042 13.5345 7.36887L13.5384 7.36993C13.5114 7.47351 13.5403 7.57686 13.6009 7.6558C13.0705 8.19817 12.8486 9.01129 13.1207 9.73326C14.0088 11.612 13.9671 12.6279 13.6809 14.6476C13.3072 16.5332 14.1611 17.222 15.5753 18.248C15.5177 18.3596 15.5058 18.5081 15.5808 18.6066C17.2161 20.9054 20.2994 22.003 22.9412 20.8362C24.0135 20.3588 24.4922 19.2163 24.7654 18.1855C25.0837 17.0313 25.1815 15.815 24.9224 14.6392C24.8179 14.0954 24.6817 13.5556 24.6392 13.0021Z" fill="white"/>
<path fill-rule="evenodd" clip-rule="evenodd" d="M15.2067 2.00446C15.4052 1.97464 15.5551 2.09784 15.6264 2.27149L15.6301 2.28084C15.6531 2.33992 15.6786 2.39739 15.706 2.4539C16.2027 2.21013 16.9114 2.27276 17.2258 2.76644C17.4501 3.11901 17.3133 3.53746 17.2287 3.91134L17.1732 4.1577C17.2805 4.22601 17.3614 4.34834 17.3576 4.47501L17.3572 4.48477L17.3346 4.8283C17.4062 4.75566 17.4717 4.67655 17.5302 4.59228C17.5705 4.51835 17.6141 4.4457 17.6609 4.37531C17.9362 3.96107 18.5542 4.32107 18.327 4.7647C18.2834 4.85026 18.2344 4.9313 18.1818 5.00943C18.1224 5.1247 18.0737 5.24319 18.0362 5.36492C18.1437 5.41173 18.2263 5.5157 18.235 5.67262C18.2554 6.03908 18.063 6.34484 17.757 6.53695C17.667 6.59345 17.574 6.60443 17.4898 6.58344C17.475 6.60346 17.4601 6.62348 17.4459 6.64382C17.5679 6.74294 17.678 6.85594 17.7725 6.98122C18.0572 6.9386 18.3435 6.91858 18.6298 6.91794C18.9796 6.74649 19.3985 6.75004 19.7745 6.81429C20.0166 6.85562 20.249 6.93602 20.4872 6.99381C20.7383 7.05451 20.9932 7.05677 21.2472 7.0981C21.5674 7.15008 21.8482 7.29796 22.0247 7.53398C22.2187 7.53979 22.4227 7.61922 22.5918 7.72706C22.9855 7.97825 23.377 8.233 23.7698 8.48581C23.9206 8.58286 23.9769 8.73781 23.9492 8.91063L23.9473 8.92168L23.9341 8.99336L23.9652 9.03748C24.0854 9.20729 24.2162 9.38516 24.294 9.5726C24.4379 9.7802 24.568 9.99782 24.6832 10.2222C24.8384 10.5238 24.9666 10.8434 25.0534 11.1715C25.075 11.2544 25.0966 11.3381 25.1108 11.4227C25.1312 11.5421 25.0998 11.6348 25.0827 11.7494C25.0614 11.8947 25.0537 12.0419 25.0311 12.1875C25.0159 12.2841 24.934 12.3315 24.8481 12.3341C24.8804 12.5798 24.9036 12.8272 24.9259 13.0725C24.9572 13.4232 24.9785 13.7748 24.9969 14.1264C25.0918 14.2643 25.2858 14.3734 25.4258 14.4112C25.6198 14.4632 25.8231 14.4066 26.0064 14.3405C26.1217 14.2988 26.2162 14.4438 26.1601 14.5406C25.9835 14.8448 25.6059 14.8435 25.32 14.7089C25.1989 14.652 25.0927 14.5697 25.014 14.4625C25.0188 14.5645 25.024 14.6666 25.0292 14.7689L25.034 14.8616C25.0921 15.9443 25.2177 17.0642 25.0143 18.1362C24.6622 19.993 23.1262 21.4068 21.2498 21.5166C20.2652 21.5742 19.4452 21.2833 19.0375 21.121C18.6298 20.9587 18.7882 20.6278 19.0713 20.7224C19.5589 20.8853 20.4546 21.1281 21.2563 21.0233C23.1456 20.7762 24.7477 19.8315 24.5831 15.7627C24.5598 15.1857 24.4879 14.6084 24.4724 14.0315C24.4576 13.4674 24.4631 12.903 24.4382 12.3393L24.4299 12.147C24.4202 11.9222 24.4099 11.6964 24.393 11.4714C24.3727 11.3842 24.3559 11.2958 24.3311 11.2102C24.2636 10.9774 24.1755 10.7511 24.0661 10.5351C24.0419 10.5535 24.0148 10.5667 23.9854 10.5719C23.7624 10.6119 23.5532 10.6006 23.3444 10.5076C23.247 10.4647 23.1611 10.4075 23.0811 10.3368C23.043 10.3036 23.0175 10.2713 22.9975 10.2377C22.8965 10.2393 22.7954 10.209 22.7322 10.1363C22.66 10.0535 22.648 9.96801 22.6763 9.88884L22.6793 9.88094L22.6722 9.87836C22.5869 10.0989 22.4172 10.2929 22.231 10.424C21.9366 10.6319 21.5684 10.692 21.2153 10.6975C20.8254 10.7033 20.4142 10.6432 20.0295 10.5819C19.9278 10.5658 19.8268 10.5473 19.7277 10.5225C19.7239 10.5264 19.72 10.5309 19.7158 10.5348C19.3856 10.8509 18.9212 10.9322 18.5023 10.7517C18.2602 10.6474 18.0572 10.4795 17.8778 10.2871C17.8752 10.3878 17.87 10.4886 17.8613 10.5884L17.8577 10.628C17.8398 10.8138 17.8054 11.0109 17.6651 11.145C17.4382 11.3623 17.109 11.2751 16.8472 11.1337C16.8475 11.1405 16.8475 11.1476 16.8475 11.1547C16.9182 11.3949 16.9892 11.6354 17.0602 11.876L17.0755 11.9272C17.1272 12.098 17.1838 12.269 17.1993 12.4478C17.229 12.7894 17.0018 13.1268 16.6223 13.0122C16.4232 12.9523 16.2637 12.7848 16.1106 12.6507L16.0142 12.5672C16.2637 13.3831 16.4367 14.2281 16.4528 15.0795C16.4538 15.1257 16.4141 15.1606 16.3702 15.1622C16.2676 15.1664 16.1572 15.146 16.0539 15.105C16.0481 15.1047 16.0423 15.1044 16.0362 15.1034C15.8599 15.0779 15.6963 15.0143 15.552 14.9203C15.5853 15.0259 15.6001 15.1392 15.5914 15.2577C15.5892 15.2865 15.5443 15.2965 15.5378 15.2648C15.4546 14.8551 14.9753 14.5455 14.5622 14.6239C14.1187 14.7082 13.7921 15.0898 13.7121 15.5241C13.6262 15.9907 13.7905 16.5302 14.0948 16.8902C14.2349 17.0561 14.4192 17.1947 14.638 17.2295C14.7381 17.2453 14.842 17.2399 14.9391 17.2114C14.9805 17.1992 15.0192 17.1821 15.0586 17.1659C15.116 17.1427 15.1831 17.1391 15.2374 17.1146C15.3603 17.0594 15.4839 17.1727 15.4217 17.2989C15.3674 17.409 15.3187 17.4833 15.2286 17.5401C15.3016 17.6292 15.3678 17.7532 15.3923 17.7865C15.5175 17.9557 15.6447 18.1155 15.7873 18.2701C15.9326 18.4271 16.091 18.5704 16.2585 18.7031L16.3289 18.7588C16.4903 18.8868 16.6308 19.0054 16.7446 19.189C16.8343 19.334 16.7181 19.5306 16.55 19.5284C16.0239 19.521 15.6414 19.0586 15.369 18.6547C15.3303 18.5969 15.2938 18.5359 15.26 18.4732C15.2477 18.4929 15.2341 18.5113 15.219 18.5281L15.249 18.6088C15.3381 18.8465 14.9543 19.0018 14.843 18.78C14.762 18.6192 14.668 18.4661 14.5635 18.3215C14.5018 18.3128 14.4415 18.2753 14.4079 18.2269C14.323 18.1039 14.2278 17.9796 14.1474 17.8485C14.1029 17.8062 14.0571 17.7655 14.0103 17.7258C13.9967 17.7377 13.9828 17.7497 13.9696 17.7623C13.9109 17.8963 13.8383 18.0186 13.7482 18.1339L13.7289 18.1585C13.5564 18.376 13.3317 18.5986 13.0537 18.6518C12.9688 18.6679 12.8871 18.5623 12.9623 18.4949C13.1569 18.3199 13.3871 18.2007 13.5665 18.0054C13.6549 17.9091 13.7361 17.8032 13.8059 17.6921L13.8218 17.6664C13.8334 17.6473 13.8454 17.6283 13.8576 17.6089C13.7766 17.5537 13.6956 17.4982 13.6146 17.4426C13.3916 17.6332 13.1012 17.7204 12.8545 17.8783L12.83 17.8943C12.607 18.0435 12.372 17.7135 12.5508 17.5324C12.7479 17.3335 12.9125 17.0962 13.0871 16.8751C13.005 16.7238 12.9661 16.5449 12.9515 16.3641C12.9458 16.313 12.9413 16.2617 12.9368 16.2105C12.8116 16.2125 12.6857 16.1695 12.5792 16.0956L12.5389 16.0669C12.4095 16.1082 12.2736 16.1282 12.1435 16.1247C11.8376 16.1156 11.7123 15.7659 11.9037 15.5448C12.099 15.3188 12.4408 15.2694 12.7115 15.3791C12.7203 15.3746 12.7293 15.3698 12.738 15.3649C12.7251 15.3055 12.728 15.2516 12.7427 15.2043L12.7384 15.1754C12.6789 15.084 12.6397 14.9797 12.6249 14.8694C12.6131 14.7821 12.6155 14.6955 12.6357 14.6093C12.6424 14.5806 12.6564 14.5508 12.6671 14.5209C12.6451 14.4653 12.6321 14.4078 12.6281 14.35C12.622 14.3427 12.6158 14.3352 12.61 14.3271C12.4757 14.1383 12.5028 13.9109 12.6307 13.7582C12.6312 13.7485 12.6322 13.7388 12.6335 13.7291C12.626 13.7123 12.6191 13.6953 12.6129 13.6781C12.4879 13.552 12.3962 13.4003 12.4133 13.2122C12.4233 13.1016 12.4688 13.0021 12.5376 12.9276C12.5254 12.8915 12.5242 12.8497 12.539 12.8148C12.4292 12.5227 12.4431 12.171 12.5221 11.8443C12.5047 11.7946 12.4956 11.7407 12.4976 11.6835C12.5066 11.4411 12.7164 11.2183 12.9649 11.2212C12.9948 11.2214 13.0228 11.2253 13.0498 11.2311L13.0501 11.2253C13.0596 11.1525 13.0796 11.0853 13.1089 11.0249C13.0945 11.0197 13.0812 11.0123 13.0695 11.0023C12.9103 11.0873 12.7418 11.1523 12.5651 11.1965C12.4352 11.2291 12.3021 11.0814 12.3829 10.9594C12.4204 10.9028 12.4617 10.852 12.5062 10.8056C12.4429 10.8059 12.3786 10.8102 12.3136 10.8186C12.1968 10.8337 12.0664 10.754 11.9905 10.6461C11.8963 10.7378 11.8017 10.8292 11.7072 10.9206C11.4677 11.1527 11.1059 10.9819 11.0681 10.6759C10.9968 10.6568 10.9303 10.6245 10.8719 10.5783C10.4943 10.7424 10.0879 10.8324 9.67257 10.8496C9.37435 10.8618 9.20007 10.5144 9.33949 10.269C9.43309 10.1044 9.54928 9.95649 9.68322 9.82799C9.47537 9.89159 9.26074 9.93744 9.0416 9.96682C8.92315 9.98264 8.75565 9.88449 8.7082 9.77568C8.52682 9.35724 8.54231 8.92104 8.75113 8.5139C8.7592 8.49775 8.76823 8.48225 8.77695 8.46676C8.79857 8.41284 8.82213 8.35956 8.84763 8.30726C8.59072 8.03927 8.56845 7.64085 8.70691 7.30732C8.6514 7.21724 8.6301 7.10875 8.66786 7.0106C8.77533 6.72809 8.93025 6.46721 9.12584 6.24313C9.10712 6.20697 9.09066 6.16855 9.07678 6.12722C8.96672 5.79305 9.09421 5.38978 9.35144 5.15699C9.51313 5.0104 9.69903 4.92258 9.89752 4.8664C9.98111 4.71853 10.0886 4.58518 10.2138 4.47282C10.2187 4.46217 10.2235 4.45151 10.229 4.44086C10.4239 4.07343 10.7789 3.87647 11.1595 3.83095C11.1743 3.68727 11.2711 3.55005 11.4118 3.50549C11.4506 3.38119 11.5084 3.26237 11.5877 3.15453C11.7126 2.9847 11.9202 2.90463 12.1158 3.01602C12.2229 3.07704 12.3255 3.1471 12.4217 3.22459C12.4649 3.20433 12.5139 3.19121 12.5692 3.18703L12.5831 3.18617L12.9013 3.17003C13.0346 3.11094 13.1676 3.04895 13.3009 2.98857C13.3809 2.92238 13.4703 2.86717 13.5678 2.82617C13.6782 2.78 13.7911 2.75385 13.9044 2.74513C13.9964 2.7151 14.089 2.68863 14.1833 2.66796C14.4047 2.61953 14.6364 2.59241 14.8662 2.59467C14.8709 2.53517 14.8732 2.47496 14.8728 2.41403L14.8723 2.38351C14.8672 2.18817 15.0231 2.03222 15.2067 2.00446ZM14.9837 17.6331C14.9521 17.6399 14.9201 17.6454 14.8882 17.6493C14.8978 17.6732 14.9075 17.697 14.9169 17.7209C14.9427 17.7355 14.9688 17.7493 14.995 17.7623C14.9872 17.7184 14.9827 17.6741 14.9837 17.6331ZM13.3255 17.1402L13.3041 17.1797C13.3006 17.1862 13.2972 17.1926 13.2938 17.1989C13.3393 17.1953 13.3851 17.1963 13.4303 17.2014L13.4302 17.1966C13.4244 17.1947 13.4186 17.1928 13.413 17.1901C13.3818 17.1752 13.3528 17.1584 13.3255 17.1402ZM14.2217 15.3368C14.5072 15.3535 14.7491 15.3973 15.0088 15.5222L15.0311 15.5332C15.2606 15.6471 15.6402 15.8576 15.6082 16.1595C15.5992 16.2454 15.5369 16.3358 15.4388 16.329C15.1699 16.3106 15.0163 16.0394 14.8343 15.8702C14.6506 15.6998 14.425 15.5244 14.2026 15.4072C14.1712 15.3907 14.1836 15.3385 14.2178 15.3368L14.2217 15.3368ZM12.9268 11.3594C12.8584 11.3616 12.8813 11.4281 12.9165 11.3726C12.9194 11.3681 12.9229 11.3636 12.9268 11.3594ZM16.6202 6.91916C15.9722 6.93621 15.32 7.31898 14.8346 7.70587C14.4123 8.04247 14.0476 8.44283 13.7247 8.87435C13.6416 9.08926 13.5703 9.30865 13.51 9.52965C13.4703 9.67559 13.4455 9.82314 13.4122 9.97038L13.4019 10.0155C13.3758 10.0643 13.3564 10.1169 13.3423 10.1711C13.4011 10.2302 13.4774 10.2724 13.5615 10.2925C13.5885 10.2989 13.611 10.3129 13.6288 10.3314C13.6965 10.2185 13.7556 10.0993 13.79 9.97293L13.7913 9.96708C13.9213 9.75402 14.0625 9.54757 14.2139 9.3482C14.6316 8.7977 15.0915 8.29596 15.6443 7.87848C16.0636 7.56207 16.5322 7.3141 17.0305 7.15299C16.9086 7.05454 16.7701 6.97667 16.6202 6.91916Z" fill="black"/>
<path fill-rule="evenodd" clip-rule="evenodd" d="M21.6726 18.9161C21.4557 18.8276 21.2621 18.6799 21.1206 18.4912C21.0714 18.4256 21.0586 18.3564 21.0689 18.293C21.0805 18.2218 21.1227 18.1572 21.1801 18.1139C21.2377 18.0705 21.3098 18.0491 21.3795 18.06C21.4401 18.0695 21.5003 18.1027 21.5481 18.1714L21.558 18.1852C21.6422 18.2991 21.7518 18.3925 21.8767 18.4527C21.9971 18.5108 22.1318 18.5379 22.2712 18.5221C22.5366 18.4921 22.7195 18.3485 22.914 18.1535C22.9381 18.1289 22.9622 18.1035 22.9864 18.0777C23.0017 18.0543 23.023 18.0393 23.0466 18.0314C23.0727 18.0226 23.1024 18.0231 23.1295 18.0326C23.1557 18.0417 23.1791 18.0591 23.1947 18.0821C23.2096 18.104 23.2181 18.131 23.2154 18.1622C23.1976 18.3642 23.0919 18.5446 22.9419 18.6862C22.7753 18.8435 22.5544 18.9523 22.3465 18.9905C22.1174 19.0325 21.884 19.0024 21.6726 18.9161ZM22.4546 15.7985C22.6983 15.9467 23.0696 16.2923 22.8075 16.6597C22.4988 16.9836 22.0545 16.6122 21.8355 16.4442C21.6325 16.314 21.4044 16.6489 21.5928 16.8009C23.175 17.9728 23.8171 15.8373 22.5778 15.6243C22.4414 15.6008 22.3907 15.7527 22.4546 15.7985ZM19.6192 14.4353C19.6461 14.1009 20.1552 14.025 20.2058 14.3559C20.2512 14.6523 20.1978 14.9246 20.0643 15.1914C19.9368 15.4463 19.6163 15.3274 19.5921 15.0953C19.5596 14.7841 19.6025 14.6433 19.6192 14.4353ZM23.4942 14.2873C23.5652 14.1943 23.6677 14.1308 23.7904 14.1667C24.174 14.2788 24.061 14.8236 23.9263 15.0888C23.8531 15.2328 23.6165 15.2693 23.5095 15.1425C23.3352 14.9357 23.2518 14.5228 23.4733 14.3191C23.4793 14.3086 23.486 14.298 23.4942 14.2873ZM20.0589 12.9722L20.1195 12.9616C20.307 12.9291 20.54 12.898 20.6726 13.0487C20.743 13.1287 20.7672 13.2773 20.6726 13.3538C20.5064 13.4884 20.3225 13.4362 20.1233 13.4476C19.9591 13.4571 19.8012 13.4843 19.6431 13.5295C19.296 13.6287 19.0133 13.8098 18.7169 14.0087C18.678 14.0348 18.6383 13.9851 18.6569 13.9487C18.828 13.6134 19.1595 13.3381 19.4916 13.1702C19.6689 13.0806 19.8628 13.0063 20.0589 12.9722ZM23.1446 12.822L23.1909 12.8315C23.6956 12.937 24.3513 13.1478 24.5903 13.6438C24.5994 13.7139 24.5898 13.7289 24.582 13.7387L24.5794 13.742C24.5729 13.7504 24.5678 13.7619 24.5374 13.7715C24.529 13.7695 24.5205 13.7674 24.5118 13.7651C24.4023 13.7364 24.3156 13.6968 24.2317 13.6558L24.1407 13.6109C24.0352 13.5591 23.9287 13.5092 23.8158 13.4724C23.575 13.3938 23.3273 13.3385 23.0757 13.3089C23.0212 13.3025 22.9687 13.2841 22.9273 13.2526C22.8879 13.2226 22.8579 13.1811 22.8442 13.126C22.8265 13.0547 22.8316 13.0007 22.8698 12.9364C22.8986 12.888 22.9397 12.8545 22.987 12.8353C23.0352 12.8157 23.09 12.8111 23.1446 12.822Z" fill="black"/>
<path fill-rule="evenodd" clip-rule="evenodd" d="M26.2023 13.3403C26.1758 13.3359 26.1492 13.3317 26.1226 13.3278C26.1018 13.316 26.0774 13.307 26.0491 13.3015C25.9844 13.2851 25.9201 13.274 25.856 13.268C24.9351 13.0607 22.8048 13.3551 22.7169 14.1412C22.4236 14.2391 22.1699 14.1514 21.83 14.1601C21.5713 13.0784 17.0985 13.231 16.8834 13.8833C16.8826 13.883 16.8818 13.8828 16.881 13.8826C16.6743 13.8186 16.3696 13.834 16.133 13.8239C15.6279 13.8133 15.1222 13.8583 14.628 13.9649C13.7025 14.112 12.4394 14.2843 13.0831 15.4404C13.0832 15.4406 13.0833 15.4409 13.0835 15.441C13.1944 15.5548 13.3827 15.4631 13.3897 15.3091C13.1733 14.7614 13.6621 14.6956 14.0382 14.5382C14.9739 14.2019 15.9266 14.1553 16.8944 14.2593C16.9672 14.3451 17.0777 14.4199 17.1944 14.459C17.8415 14.5664 17.5005 15.0466 17.9095 15.1165C17.8344 16.7903 19.8658 17.704 21.0428 16.6036C21.5128 16.144 21.6248 15.4631 21.7337 14.8494C21.7913 14.8364 21.828 14.8049 21.8494 14.7632C21.9879 14.6248 22.075 14.497 22.349 14.459C22.6229 14.421 22.8338 14.4973 22.8624 14.5206C22.8696 14.5351 22.8773 14.5496 22.8863 14.5642C22.8988 14.5858 22.9158 14.6031 22.9352 14.6167C22.6646 16.2835 23.9581 17.3376 25.2639 16.4731C25.8313 15.9392 25.9512 15.1217 25.9749 14.3921C26.0518 14.3457 26.1005 14.2557 26.0739 14.1425C26.0372 13.9866 26.1232 13.8516 26.2603 13.7838C26.4383 13.6957 26.4068 13.3742 26.2023 13.3403ZM20.5915 14.1311C20.4294 14.0954 20.3602 14.3454 20.5227 14.3811C20.6379 14.4065 20.7355 14.4646 20.8014 14.563L20.8083 14.5737C20.8968 14.7145 21.1205 14.5845 21.0314 14.4427C20.9312 14.2832 20.7755 14.1715 20.5915 14.1311ZM25.3386 13.9761C25.2815 13.9358 25.195 13.9657 25.1618 14.0226C25.1253 14.0852 25.1492 14.155 25.2028 14.196L25.2082 14.2C25.2573 14.2346 25.3051 14.2966 25.3111 14.3602L25.3116 14.3681C25.3181 14.5345 25.5765 14.5353 25.57 14.3681C25.5637 14.2046 25.4691 14.0679 25.3386 13.9761Z" fill="black"/>
</g>
</svg>
